#N canvas -8 -8 1768 909 12;
#N canvas -8 -8 1768 909 pluck 0;
#X obj 1 -5 cnv 15 1700 1000 empty empty empty 20 12 0 14 -99865 -66577
0;
#X obj 152 102 cnv 15 346 236 empty empty empty 20 12 0 14 -222273
-66577 0;
#X floatatom 233 453 5 0 1 0 - - -;
#X text 292 454 decay;
#X floatatom 565 104 5 0 0 0 - - -;
#X floatatom 163 253 5 0 0 1 phrasing - -;
#X obj 429 587 sel 0 1 2 3 4;
#X msg 396 628 85;
#X msg 435 631 170;
#X msg 481 630 255;
#X msg 557 632 425;
#X obj 549 674 sel 0 1 2 3 4;
#X obj 1021 259 + 0;
#X floatatom 590 756 5 0 0 0 - - -;
#X obj 349 152 hradio 35 1 0 4 empty karplus_octave octave 0 -15 0
25 -115521 -1 -1 2;
#X obj 555 52 inlet;
#X msg 520 631 340;
#X floatatom 163 204 5 0 0 1 decay - -;
#X obj 233 476 s string~_decay;
#X obj 45 168 s harm_filter;
#X floatatom 161 150 5 0 0 1 Harmonics_filter - -;
#X obj 164 121 hsl 174 22 1 127 0 0 empty Harmonics_karplus empty -2
-8 0 10 -115521 -1 -1 3707 1;
#X obj 166 179 hsl 174 22 0.9 1 0 0 empty decay_karplus empty -2 -8
0 10 -115521 -1 -1 15224 1;
#X obj 166 228 hsl 174 22 0.4 1 0 0 empty karplus_volume empty -2 -8
0 10 -115521 -1 -1 17300 1;
#X obj 565 127 moses 77;
#X obj 611 181 random 10;
#X obj 611 205 + 65;
#X obj 573 468 *~ 0.1;
#X obj 1021 218 r karplus_notes;
#X obj 353 238 nbx 4 25 -1e+037 1e+037 0 0 empty empty midi-note 0
-15 0 25 -115521 -1 -1 0 256;
#X obj 316 356 s wave-dyn;
#X floatatom 163 303 5 0 0 1 Output - -;
#X obj 166 278 hsl 174 22 0.001 1 0 0 empty empty seminima 184 16 2
25 -115521 -1 -1 3446 1;
#X obj 572 488 *~ 0;
#X obj 615 158 bang;
#X msg 22 -14 label semi-fusa;
#X msg 61 9 label fusa;
#X msg 100 34 label semi-colcheia;
#X msg 139 60 label colcheia;
#X floatatom 222 -58 5 0 0 0 - - -;
#X obj 24 -82 r karplus-rhythm-label;
#X obj 22 -38 sel 1 2 3 4 5 6 7 8, f 34;
#X msg 320 -10 label seminima;
#X msg 399 36 label minima;
#X msg 156 4 label colcheia-pont;
#X msg 247 33 label seminima-pont;
#X msg 531 703 -24;
#X msg 571 703 -12;
#X msg 607 700 0;
#X msg 647 700 12;
#X msg 685 701 24;
#X floatatom 1062 256 5 0 0 0 - - -;
#X symbolatom 1332 248 9 0 0 0 - - -;
#X symbolatom 1246 247 9 0 0 0 - - -;
#X symbolatom 1160 247 9 0 0 0 - - -;
#X obj 1300 278 t b s;
#X obj 1214 278 t b s;
#X obj 1160 316 pack symbol symbol symbol;
#X msg 1160 345 color \$1 \$2 \$3;
#X text 1269 346 RGB in hexadecimal;
#N canvas 1044 268 390 482 label 0;
#X obj 102 80 vsl 15 128 0 255 0 0 empty empty empty 0 -9 0 10 -8256
-262144 -1 0 1;
#X obj 109 225 t b f;
#X obj 81 80 vsl 15 128 0 255 0 0 empty empty empty 0 -9 0 10 -4033
-1 -1 0 1;
#X obj 80 341 pack s s s;
#X obj 61 80 vsl 15 128 0 255 0 0 empty empty empty 0 -9 0 10 -258049
-1 -1 0 1;
#X obj 81 250 t b f;
#X obj 147 257 makefilename %02x;
#X obj 113 284 makefilename %02x;
#X obj 74 311 makefilename %02x;
#X text 66 56 label;
#X obj 80 406 outlet;
#X msg 80 370 symbol #\$1\$2\$3;
#X obj 161 185 loadbang;
#X msg 161 217 0;
#X connect 0 0 1 0;
#X connect 1 0 2 0;
#X connect 1 1 6 0;
#X connect 2 0 5 0;
#X connect 3 0 11 0;
#X connect 4 0 8 0;
#X connect 5 0 4 0;
#X connect 5 1 7 0;
#X connect 6 0 3 2;
#X connect 7 0 3 1;
#X connect 8 0 3 0;
#X connect 11 0 10 0;
#X connect 12 0 13 0;
#X connect 13 0 6 0;
#X connect 13 0 7 0;
#X coords 0 -1 1 1 80 170 2 50 50;
#X restore 1332 66 pd label;
#N canvas 965 279 390 482 label 0;
#X obj 102 80 vsl 15 128 0 255 0 0 empty empty empty 0 -9 0 10 -8256
-262144 -1 0 1;
#X obj 109 225 t b f;
#X obj 81 80 vsl 15 128 0 255 0 0 empty empty empty 0 -9 0 10 -4033
-1 -1 0 1;
#X obj 74 341 pack s s s;
#X obj 61 80 vsl 15 128 0 255 0 0 empty empty empty 0 -9 0 10 -258049
-1 -1 0 1;
#X obj 81 250 t b f;
#X obj 146 257 makefilename %02x;
#X obj 112 284 makefilename %02x;
#X obj 74 311 makefilename %02x;
#X obj 74 406 outlet;
#X text 69 56 front;
#X msg 74 370 symbol #\$1\$2\$3;
#X obj 177 168 loadbang;
#X msg 177 200 0;
#X connect 0 0 1 0;
#X connect 1 0 2 0;
#X connect 1 1 6 0;
#X connect 2 0 5 0;
#X connect 3 0 11 0;
#X connect 4 0 8 0;
#X connect 5 0 4 0;
#X connect 5 1 7 0;
#X connect 6 0 3 2;
#X connect 7 0 3 1;
#X connect 8 0 3 0;
#X connect 11 0 9 0;
#X connect 12 0 13 0;
#X connect 13 0 6 0;
#X connect 13 0 7 0;
#X coords 0 -1 1 1 80 170 2 50 50;
#X restore 1246 66 pd label;
#N canvas 894 296 390 482 label 0;
#X obj 102 80 vsl 15 128 0 255 0 0 empty empty empty 0 -9 0 10 -8256
-262144 -1 12700 1;
#X obj 109 225 t b f;
#X obj 81 80 vsl 15 128 0 255 0 0 empty empty empty 0 -9 0 10 -4033
-1 -1 12700 1;
#X obj 61 80 vsl 15 128 0 255 0 0 empty empty empty 0 -9 0 10 -258049
-1 -1 12700 1;
#X obj 81 250 t b f;
#X obj 221 257 makefilename %02x;
#X obj 141 284 makefilename %02x;
#X obj 61 321 makefilename %02x;
#X obj 61 416 outlet;
#X text 52 56 background;
#X msg 61 380 symbol #\$1\$2\$3;
#X obj 176 59 loadbang;
#X msg 176 91 set 255;
#X obj 176 176 route set;
#X obj 61 351 pack symbol symbol symbol;
#X connect 0 0 1 0;
#X connect 1 0 2 0;
#X connect 1 1 5 0;
#X connect 2 0 4 0;
#X connect 3 0 7 0;
#X connect 4 0 3 0;
#X connect 4 1 6 0;
#X connect 5 0 14 2;
#X connect 6 0 14 1;
#X connect 7 0 14 0;
#X connect 10 0 8 0;
#X connect 11 0 12 0;
#X connect 12 0 3 0;
#X connect 12 0 2 0;
#X connect 12 0 0 0;
#X connect 12 0 13 0;
#X connect 13 0 5 0;
#X connect 13 0 6 0;
#X connect 14 0 10 0;
#X coords 0 -1 1 1 80 170 2 50 50;
#X restore 1160 66 pd label;
#X obj 78 240 loadbang;
#X msg 78 264 80;
#X msg 78 288 0.988;
#X obj 573 510 outlet~;
#X obj 39 77 loadbang;
#X msg 39 101 28;
#X obj 639 498 clip~ -0.5 0.5;
#X obj 639 411 *~ 22;
#X msg 78 312 0.2;
#X msg 78 336 1;
#N canvas -8 -8 1768 909 gate 0;
#X obj 59 203 inlet;
#X obj 240 394 spigot;
#X obj 304 389 spigot;
#X obj 361 382 spigot;
#X obj 454 378 spigot;
#X obj 302 22 bng 15 250 50 0 empty empty empty 17 7 0 10 -262144 -1
-1;
#X obj 302 46 f;
#X obj 302 70 + 1;
#X floatatom 302 118 5 0 0 0 - - -;
#X obj 305 157 sel 0 1 2 3;
#X msg 305 181 1;
#X obj 232 444 outlet;
#X obj 292 444 outlet;
#X obj 342 444 outlet;
#X obj 392 444 outlet;
#X msg 305 205 0;
#X msg 305 229 0;
#X msg 305 253 0;
#X msg 335 181 0;
#X msg 335 205 1;
#X msg 335 229 0;
#X msg 335 253 0;
#X msg 365 181 0;
#X msg 365 205 0;
#X msg 365 229 1;
#X msg 365 253 0;
#X msg 395 181 0;
#X msg 395 205 0;
#X msg 395 229 0;
#X msg 395 253 1;
#X obj 302 94 % 4;
#X connect 0 0 5 0;
#X connect 0 0 1 0;
#X connect 0 0 2 0;
#X connect 0 0 3 0;
#X connect 0 0 4 0;
#X connect 1 0 11 0;
#X connect 2 0 12 0;
#X connect 3 0 13 0;
#X connect 4 0 14 0;
#X connect 5 0 6 0;
#X connect 6 0 7 0;
#X connect 7 0 6 1;
#X connect 7 0 30 0;
#X connect 8 0 9 0;
#X connect 9 0 10 0;
#X connect 9 1 18 0;
#X connect 9 2 22 0;
#X connect 9 3 26 0;
#X connect 10 0 1 1;
#X connect 10 0 15 0;
#X connect 15 0 16 0;
#X connect 15 0 2 1;
#X connect 16 0 17 0;
#X connect 16 0 3 1;
#X connect 17 0 4 1;
#X connect 18 0 2 1;
#X connect 18 0 19 0;
#X connect 18 0 1 1;
#X connect 19 0 20 0;
#X connect 19 0 2 1;
#X connect 20 0 21 0;
#X connect 20 0 3 1;
#X connect 21 0 4 1;
#X connect 22 0 3 1;
#X connect 22 0 23 0;
#X connect 22 0 1 1;
#X connect 23 0 24 0;
#X connect 23 0 2 1;
#X connect 24 0 25 0;
#X connect 24 0 3 1;
#X connect 25 0 4 1;
#X connect 26 0 27 0;
#X connect 26 0 1 1;
#X connect 27 0 28 0;
#X connect 27 0 2 1;
#X connect 28 0 29 0;
#X connect 28 0 3 1;
#X connect 29 0 4 1;
#X connect 30 0 8 0;
#X restore 593 292 pd gate;
#N canvas -8 -8 1768 909 string 0;
#X obj 37 37 inlet;
#X obj 107 170 noise~;
#X obj 117 256 *~;
#X obj 227 170 bng 15 250 50 0 empty empty empty 17 7 0 10 -262144
-1 -1;
#N canvas 603 310 450 300 env 0;
#X obj 37 37 inlet;
#X obj 47 191 tgl 15 0 empty empty empty 17 7 0 10 -262144 -1 -1 0
1;
#X obj 41 67 t b b, f 9;
#X obj 41 104 del 30;
#X msg 41 141 0;
#X msg 146 140 1;
#X obj 47 211 outlet;
#X connect 0 0 2 0;
#X connect 1 0 6 0;
#X connect 2 0 3 0;
#X connect 2 1 5 0;
#X connect 3 0 4 0;
#X connect 4 0 1 0;
#X connect 5 0 1 0;
#X restore 227 205 pd env;
#X text 652 287 NEVER > 1!!!!!!;
#X floatatom 392 84 5 0 0 0 - - -;
#X text 388 64 MIDI NOTE;
#X obj 43 80 t b f;
#X floatatom 655 259 5 0 1 0 - - -;
#X text 727 261 decay;
#X obj 395 460 outlet~;
#X text 546 60 PITCH BEND;
#X obj 656 222 r string~_decay;
#X obj 826 101 moses 36;
#X obj 896 100 moses 48;
#X obj 966 100 moses 60;
#X obj 770 49 r harm_filter;
#X obj 698 106 * 12;
#X obj 395 383 *~;
#X text 1032 100 dynamic per range output;
#X text 870 50 amount of harmonics;
#X obj 392 113 mtof;
#X obj 395 322 *~ 0.9;
#X msg 826 364 0.4;
#X msg 896 364 0.31;
#X msg 966 364 0.21;
#X msg 1020 364 0.23;
#X obj 392 231 expr 1000 / $f1;
#X obj 395 359 lop~ 3000;
#X obj 710 153 loadbang;
#X msg 710 177 0.9998;
#X obj 137 415 delwrite~ del_1 1000;
#X obj 395 285 delread4~ del_1;
#X connect 0 0 8 0;
#X connect 1 0 2 0;
#X connect 2 0 32 0;
#X connect 3 0 4 0;
#X connect 4 0 2 1;
#X connect 6 0 14 0;
#X connect 6 0 22 0;
#X connect 8 0 3 0;
#X connect 8 1 6 0;
#X connect 9 0 23 1;
#X connect 13 0 9 0;
#X connect 14 0 24 0;
#X connect 14 1 15 0;
#X connect 15 0 25 0;
#X connect 15 1 16 0;
#X connect 16 0 26 0;
#X connect 16 1 27 0;
#X connect 17 0 18 1;
#X connect 18 0 29 1;
#X connect 19 0 11 0;
#X connect 22 0 18 0;
#X connect 22 0 28 0;
#X connect 23 0 29 0;
#X connect 24 0 19 1;
#X connect 25 0 19 1;
#X connect 26 0 19 1;
#X connect 27 0 19 1;
#X connect 28 0 33 0;
#X connect 29 0 19 0;
#X connect 29 0 32 0;
#X connect 30 0 31 0;
#X connect 31 0 9 0;
#X connect 33 0 23 0;
#X restore 514 349 pd string;
#N canvas -8 -8 1768 909 string 0;
#X obj 37 37 inlet;
#X obj 107 170 noise~;
#X obj 117 256 *~;
#X obj 227 170 bng 15 250 50 0 empty empty empty 17 7 0 10 -262144
-1 -1;
#N canvas 603 310 450 300 env 0;
#X obj 37 37 inlet;
#X obj 47 191 tgl 15 0 empty empty empty 17 7 0 10 -262144 -1 -1 0
1;
#X obj 41 67 t b b, f 9;
#X obj 41 104 del 30;
#X msg 41 141 0;
#X msg 146 140 1;
#X obj 47 211 outlet;
#X connect 0 0 2 0;
#X connect 1 0 6 0;
#X connect 2 0 3 0;
#X connect 2 1 5 0;
#X connect 3 0 4 0;
#X connect 4 0 1 0;
#X connect 5 0 1 0;
#X restore 227 205 pd env;
#X text 652 287 NEVER > 1!!!!!!;
#X floatatom 392 84 5 0 0 0 - - -;
#X text 388 64 MIDI NOTE;
#X obj 43 80 t b f;
#X floatatom 655 259 5 0 1 0 - - -;
#X text 727 261 decay;
#X obj 395 460 outlet~;
#X text 546 60 PITCH BEND;
#X obj 656 222 r string~_decay;
#X obj 826 101 moses 36;
#X obj 896 100 moses 48;
#X obj 966 100 moses 60;
#X obj 770 49 r harm_filter;
#X obj 698 106 * 12;
#X obj 395 383 *~;
#X text 1032 100 dynamic per range output;
#X text 870 50 amount of harmonics;
#X obj 392 113 mtof;
#X obj 395 322 *~ 0.9;
#X msg 826 364 0.4;
#X msg 896 364 0.31;
#X msg 966 364 0.21;
#X msg 1020 364 0.23;
#X obj 392 231 expr 1000 / $f1;
#X obj 395 359 lop~ 3000;
#X obj 710 153 loadbang;
#X msg 710 177 0.9998;
#X obj 137 415 delwrite~ del_2 1000;
#X obj 395 285 delread4~ del_2;
#X connect 0 0 8 0;
#X connect 1 0 2 0;
#X connect 2 0 32 0;
#X connect 3 0 4 0;
#X connect 4 0 2 1;
#X connect 6 0 14 0;
#X connect 6 0 22 0;
#X connect 8 0 3 0;
#X connect 8 1 6 0;
#X connect 9 0 23 1;
#X connect 13 0 9 0;
#X connect 14 0 24 0;
#X connect 14 1 15 0;
#X connect 15 0 25 0;
#X connect 15 1 16 0;
#X connect 16 0 26 0;
#X connect 16 1 27 0;
#X connect 17 0 18 1;
#X connect 18 0 29 1;
#X connect 19 0 11 0;
#X connect 22 0 18 0;
#X connect 22 0 28 0;
#X connect 23 0 29 0;
#X connect 24 0 19 1;
#X connect 25 0 19 1;
#X connect 26 0 19 1;
#X connect 27 0 19 1;
#X connect 28 0 33 0;
#X connect 29 0 19 0;
#X connect 29 0 32 0;
#X connect 30 0 31 0;
#X connect 31 0 9 0;
#X connect 33 0 23 0;
#X restore 584 349 pd string;
#N canvas -8 -8 1768 909 string 0;
#X obj 37 37 inlet;
#X obj 107 170 noise~;
#X obj 117 256 *~;
#X obj 227 170 bng 15 250 50 0 empty empty empty 17 7 0 10 -262144
-1 -1;
#N canvas 603 310 450 300 env 0;
#X obj 37 37 inlet;
#X obj 47 191 tgl 15 0 empty empty empty 17 7 0 10 -262144 -1 -1 0
1;
#X obj 41 67 t b b, f 9;
#X obj 41 104 del 30;
#X msg 41 141 0;
#X msg 146 140 1;
#X obj 47 211 outlet;
#X connect 0 0 2 0;
#X connect 1 0 6 0;
#X connect 2 0 3 0;
#X connect 2 1 5 0;
#X connect 3 0 4 0;
#X connect 4 0 1 0;
#X connect 5 0 1 0;
#X restore 227 205 pd env;
#X text 652 287 NEVER > 1!!!!!!;
#X floatatom 392 84 5 0 0 0 - - -;
#X text 388 64 MIDI NOTE;
#X obj 43 80 t b f;
#X floatatom 655 259 5 0 1 0 - - -;
#X text 727 261 decay;
#X obj 395 460 outlet~;
#X text 546 60 PITCH BEND;
#X obj 656 222 r string~_decay;
#X obj 826 101 moses 36;
#X obj 896 100 moses 48;
#X obj 966 100 moses 60;
#X obj 770 49 r harm_filter;
#X obj 698 106 * 12;
#X obj 395 383 *~;
#X text 1032 100 dynamic per range output;
#X text 870 50 amount of harmonics;
#X obj 392 113 mtof;
#X obj 395 322 *~ 0.9;
#X msg 826 364 0.4;
#X msg 896 364 0.31;
#X msg 966 364 0.21;
#X msg 1020 364 0.23;
#X obj 392 231 expr 1000 / $f1;
#X obj 395 359 lop~ 3000;
#X obj 710 153 loadbang;
#X msg 710 177 0.9998;
#X obj 137 415 delwrite~ del_3 1000;
#X obj 395 285 delread4~ del_3;
#X connect 0 0 8 0;
#X connect 1 0 2 0;
#X connect 2 0 32 0;
#X connect 3 0 4 0;
#X connect 4 0 2 1;
#X connect 6 0 14 0;
#X connect 6 0 22 0;
#X connect 8 0 3 0;
#X connect 8 1 6 0;
#X connect 9 0 23 1;
#X connect 13 0 9 0;
#X connect 14 0 24 0;
#X connect 14 1 15 0;
#X connect 15 0 25 0;
#X connect 15 1 16 0;
#X connect 16 0 26 0;
#X connect 16 1 27 0;
#X connect 17 0 18 1;
#X connect 18 0 29 1;
#X connect 19 0 11 0;
#X connect 22 0 18 0;
#X connect 22 0 28 0;
#X connect 23 0 29 0;
#X connect 24 0 19 1;
#X connect 25 0 19 1;
#X connect 26 0 19 1;
#X connect 27 0 19 1;
#X connect 28 0 33 0;
#X connect 29 0 19 0;
#X connect 29 0 32 0;
#X connect 30 0 31 0;
#X connect 31 0 9 0;
#X connect 33 0 23 0;
#X restore 654 349 pd string;
#N canvas -8 -8 1768 909 string 0;
#X obj 37 37 inlet;
#X obj 107 170 noise~;
#X obj 117 256 *~;
#X obj 227 170 bng 15 250 50 0 empty empty empty 17 7 0 10 -262144
-1 -1;
#N canvas 603 310 450 300 env 0;
#X obj 37 37 inlet;
#X obj 47 191 tgl 15 0 empty empty empty 17 7 0 10 -262144 -1 -1 0
1;
#X obj 41 67 t b b, f 9;
#X obj 41 104 del 30;
#X msg 41 141 0;
#X msg 146 140 1;
#X obj 47 211 outlet;
#X connect 0 0 2 0;
#X connect 1 0 6 0;
#X connect 2 0 3 0;
#X connect 2 1 5 0;
#X connect 3 0 4 0;
#X connect 4 0 1 0;
#X connect 5 0 1 0;
#X restore 227 205 pd env;
#X text 652 287 NEVER > 1!!!!!!;
#X floatatom 392 84 5 0 0 0 - - -;
#X text 388 64 MIDI NOTE;
#X obj 43 80 t b f;
#X floatatom 655 259 5 0 1 0 - - -;
#X text 727 261 decay;
#X obj 395 460 outlet~;
#X text 546 60 PITCH BEND;
#X obj 656 222 r string~_decay;
#X obj 826 101 moses 36;
#X obj 896 100 moses 48;
#X obj 966 100 moses 60;
#X obj 770 49 r harm_filter;
#X obj 698 106 * 12;
#X obj 395 383 *~;
#X text 1032 100 dynamic per range output;
#X text 870 50 amount of harmonics;
#X obj 392 113 mtof;
#X obj 395 322 *~ 0.9;
#X msg 826 364 0.4;
#X msg 896 364 0.31;
#X msg 966 364 0.21;
#X msg 1020 364 0.23;
#X obj 392 231 expr 1000 / $f1;
#X obj 395 359 lop~ 3000;
#X obj 710 153 loadbang;
#X msg 710 177 0.9998;
#X obj 137 415 delwrite~ del_4 1000;
#X obj 395 285 delread4~ del_4;
#X connect 0 0 8 0;
#X connect 1 0 2 0;
#X connect 2 0 32 0;
#X connect 3 0 4 0;
#X connect 4 0 2 1;
#X connect 6 0 14 0;
#X connect 6 0 22 0;
#X connect 8 0 3 0;
#X connect 8 1 6 0;
#X connect 9 0 23 1;
#X connect 13 0 9 0;
#X connect 14 0 24 0;
#X connect 14 1 15 0;
#X connect 15 0 25 0;
#X connect 15 1 16 0;
#X connect 16 0 26 0;
#X connect 16 1 27 0;
#X connect 17 0 18 1;
#X connect 18 0 29 1;
#X connect 19 0 11 0;
#X connect 22 0 18 0;
#X connect 22 0 28 0;
#X connect 23 0 29 0;
#X connect 24 0 19 1;
#X connect 25 0 19 1;
#X connect 26 0 19 1;
#X connect 27 0 19 1;
#X connect 28 0 33 0;
#X connect 29 0 19 0;
#X connect 29 0 32 0;
#X connect 30 0 31 0;
#X connect 31 0 9 0;
#X connect 33 0 23 0;
#X restore 724 349 pd string;
#X connect 2 0 18 0;
#X connect 4 0 24 0;
#X connect 4 0 29 0;
#X connect 5 0 27 1;
#X connect 5 0 30 0;
#X connect 6 0 7 0;
#X connect 6 1 8 0;
#X connect 6 2 9 0;
#X connect 6 3 16 0;
#X connect 6 4 10 0;
#X connect 11 0 46 0;
#X connect 11 1 47 0;
#X connect 11 2 48 0;
#X connect 11 3 49 0;
#X connect 11 4 50 0;
#X connect 12 0 4 0;
#X connect 13 0 12 1;
#X connect 14 0 11 0;
#X connect 15 0 12 0;
#X connect 17 0 2 0;
#X connect 20 0 19 0;
#X connect 21 0 20 0;
#X connect 22 0 17 0;
#X connect 23 0 5 0;
#X connect 24 0 73 0;
#X connect 24 1 34 0;
#X connect 25 0 26 0;
#X connect 26 0 73 0;
#X connect 27 0 33 0;
#X connect 28 0 12 0;
#X connect 28 0 51 0;
#X connect 31 0 33 1;
#X connect 32 0 31 0;
#X connect 33 0 66 0;
#X connect 34 0 25 0;
#X connect 35 0 32 0;
#X connect 36 0 32 0;
#X connect 37 0 32 0;
#X connect 38 0 32 0;
#X connect 40 0 39 0;
#X connect 40 0 41 0;
#X connect 41 0 35 0;
#X connect 41 1 36 0;
#X connect 41 2 37 0;
#X connect 41 3 38 0;
#X connect 41 4 44 0;
#X connect 41 5 42 0;
#X connect 41 6 45 0;
#X connect 41 7 43 0;
#X connect 42 0 32 0;
#X connect 43 0 32 0;
#X connect 45 0 32 0;
#X connect 46 0 13 0;
#X connect 47 0 13 0;
#X connect 48 0 13 0;
#X connect 49 0 13 0;
#X connect 50 0 13 0;
#X connect 52 0 55 0;
#X connect 53 0 56 0;
#X connect 54 0 57 0;
#X connect 55 0 57 0;
#X connect 55 1 57 2;
#X connect 56 0 57 0;
#X connect 56 1 57 1;
#X connect 57 0 58 0;
#X connect 58 0 22 0;
#X connect 58 0 21 0;
#X connect 58 0 23 0;
#X connect 58 0 32 0;
#X connect 58 0 29 0;
#X connect 58 0 14 0;
#X connect 60 0 52 0;
#X connect 61 0 53 0;
#X connect 62 0 54 0;
#X connect 63 0 64 0;
#X connect 64 0 65 0;
#X connect 64 0 21 0;
#X connect 65 0 71 0;
#X connect 65 0 22 0;
#X connect 67 0 68 0;
#X connect 68 0 21 0;
#X connect 69 0 27 0;
#X connect 70 0 69 0;
#X connect 71 0 32 0;
#X connect 71 0 72 0;
#X connect 72 0 23 0;
#X connect 73 0 74 0;
#X connect 73 1 75 0;
#X connect 73 2 76 0;
#X connect 73 3 77 0;
#X connect 74 0 70 0;
#X connect 75 0 70 0;
#X connect 76 0 70 0;
#X connect 77 0 70 0;
#X coords 0 -1 1 1 350 240 1 150 100;
#X restore 30 195 pd pluck;
#X obj 469 273 makenote 100 1000;
#N canvas -8 -8 1768 909 drum_machine 0;
#X obj 651 402 cnv 15 238 116 empty empty empty 20 12 0 14 -128992
-66577 0;
#X obj 1394 120 bng 15 250 50 0 empty empty empty 17 7 0 10 -262144
-1 -1;
#N canvas 606 142 882 887 tr808-snare 0;
#X obj 247 36 inlet;
#X obj 174 410 vcf~ 3;
#X obj 205 109 noise~;
#X obj 196 164 *~;
#X floatatom 296 38 5 0 0 1 Decay - -;
#X obj 221 503 hip~ 50;
#X obj 318 271 +~ 100;
#X obj 317 244 *~ 8000;
#X obj 244 410 vcf~ 5;
#X obj 369 244 *~ 5000;
#X obj 373 272 +~ 200;
#X obj 296 15 inlet;
#X obj 221 524 outlet~;
#X obj 483 199 inlet;
#X obj 483 220 * 0.6;
#N canvas 381 209 450 300 vol_env 0;
#X obj 37 37 inlet;
#X obj 29 204 *~;
#X obj 29 225 outlet~;
#X obj 38 155 vline~;
#X msg 37 58 1 0.5 \, 0 \$1 0.5;
#X connect 0 0 4 0;
#X connect 1 0 2 0;
#X connect 3 0 1 0;
#X connect 3 0 1 1;
#X connect 4 0 3 0;
#X restore 132 82 pd vol_env;
#X obj 247 57 f 250;
#N canvas 381 209 450 300 cutoff_env 0;
#X obj 37 37 inlet;
#X obj 29 204 *~;
#X obj 29 225 outlet~;
#X obj 38 155 vline~;
#X msg 37 58 1 0.5 \, 0 \$1 0.5;
#X connect 0 0 4 0;
#X connect 1 0 2 0;
#X connect 3 0 1 0;
#X connect 3 0 1 1;
#X connect 4 0 3 0;
#X restore 400 172 pd cutoff_env;
#X obj 398 137 * 2;
#X text 520 204 Noise;
#N canvas 0 23 450 300 FM_osc 0;
#X obj 63 166 osc~ 150;
#X obj 68 135 +~;
#X obj 60 92 sig~ 150;
#X obj 134 70 osc~ 50;
#X obj 134 91 *~ 30;
#X obj 64 199 *~;
#X obj 220 143 *~;
#X obj 225 109 inlet~;
#X obj 64 220 outlet~;
#X connect 0 0 5 0;
#X connect 1 0 0 0;
#X connect 2 0 1 0;
#X connect 3 0 4 0;
#X connect 4 0 1 1;
#X connect 5 0 8 0;
#X connect 6 0 5 1;
#X connect 7 0 6 0;
#X connect 7 0 6 1;
#X restore 100 177 pd FM_osc;
#X obj 210 138 hip~ 100;
#X floatatom 498 341 5 0 0 0 - - -;
#X obj 233 456 *~ 1;
#X connect 0 0 16 0;
#X connect 1 0 5 0;
#X connect 2 0 21 0;
#X connect 3 0 1 0;
#X connect 4 0 16 1;
#X connect 5 0 12 0;
#X connect 6 0 1 1;
#X connect 7 0 6 0;
#X connect 8 0 23 0;
#X connect 8 1 23 0;
#X connect 9 0 10 0;
#X connect 10 0 8 1;
#X connect 11 0 4 0;
#X connect 13 0 14 0;
#X connect 13 0 7 1;
#X connect 14 0 9 1;
#X connect 15 0 3 0;
#X connect 15 0 20 0;
#X connect 16 0 15 0;
#X connect 16 0 18 0;
#X connect 17 0 7 0;
#X connect 17 0 9 0;
#X connect 18 0 17 0;
#X connect 20 0 1 0;
#X connect 20 0 8 0;
#X connect 21 0 3 1;
#X connect 22 0 8 2;
#X connect 23 0 5 0;
#X restore 1526 231 pd tr808-snare;
#X floatatom 1561 198 5 0 0 1 Decay - -;
#X obj 1563 32 vsl 15 128 50 2000 0 0 empty tr808sn_decay empty 0 -9
0 10 -262144 -1 -1 4800 1;
#X floatatom 1642 205 5 0 0 1 Noise - -;
#X obj 1642 56 vsl 15 128 100 10000 1 0 empty tr808sn_noise empty 0
-9 0 10 -262144 -1 -1 7399 1;
#X msg 1153 367 \; tr808sn_decay 200 \; tr808sn_noise 300 \;;
#X msg 1335 383 \; tr808sn_decay 500 \; tr808sn_noise 5000 \;;
#X msg 1497 367 \; tr808sn_decay 800 \; tr808sn_noise 3000 \;;
#X msg 989 367 \; tr808sn_decay 300 \; tr808sn_noise 6000 \;;
#X obj 1335 346 loadbang;
#X obj 781 612 bng 15 250 50 0 empty empty empty 17 7 0 10 -262144
-1 -1;
#N canvas 42 87 470 441 tr808-clap 0;
#X obj 79 265 inlet;
#X obj 70 121 noise~;
#X obj 210 257 inlet;
#X obj 79 385 outlet~;
#X obj 98 222 lop~;
#X floatatom 122 150 5 0 0 0 - - -;
#X obj 98 187 hip~;
#X obj 85 353 *~;
#X floatatom 184 128 5 0 0 0 - - -;
#X obj 184 148 t b f;
#X obj 161 184 + 500;
#N canvas 0 23 811 499 multi_env 0;
#X obj 127 101 inlet;
#X floatatom 427 320 5 0 0 1 Decay - -;
#N canvas 0 23 450 300 env2 0;
#X obj 37 37 inlet;
#X obj 38 155 line~;
#X obj 29 204 *~;
#X msg 37 105 0;
#X obj 37 126 pack 0 200;
#X obj 37 84 del 2;
#X obj 37 63 t b b, f 14;
#X obj 29 225 outlet~;
#X obj 187 61 inlet;
#X msg 121 127 1 0;
#X connect 0 0 6 0;
#X connect 1 0 2 0;
#X connect 1 0 2 1;
#X connect 2 0 7 0;
#X connect 3 0 4 0;
#X connect 4 0 1 0;
#X connect 5 0 3 0;
#X connect 6 0 5 0;
#X connect 6 1 9 0;
#X connect 8 0 4 1;
#X connect 9 0 1 0;
#X restore 123 355 pd env2;
#N canvas 0 23 450 300 env2 0;
#X obj 37 37 inlet;
#X obj 38 155 line~;
#X obj 29 204 *~;
#X msg 37 105 0;
#X obj 37 126 pack 0 200;
#X obj 37 84 del 2;
#X obj 37 63 t b b, f 14;
#X obj 29 225 outlet~;
#X obj 187 61 inlet;
#X msg 120 128 1 0;
#X connect 0 0 6 0;
#X connect 1 0 2 0;
#X connect 1 0 2 1;
#X connect 2 0 7 0;
#X connect 3 0 4 0;
#X connect 4 0 1 0;
#X connect 5 0 3 0;
#X connect 6 0 5 0;
#X connect 6 1 9 0;
#X connect 8 0 4 1;
#X connect 9 0 1 0;
#X restore 179 354 pd env2;
#N canvas 0 23 450 300 env2 0;
#X obj 37 37 inlet;
#X obj 38 155 line~;
#X obj 29 204 *~;
#X msg 37 105 0;
#X obj 37 126 pack 0 200;
#X obj 37 84 del 2;
#X obj 37 63 t b b, f 14;
#X obj 29 225 outlet~;
#X obj 187 61 inlet;
#X msg 120 128 1 0;
#X connect 0 0 6 0;
#X connect 1 0 2 0;
#X connect 1 0 2 1;
#X connect 2 0 7 0;
#X connect 3 0 4 0;
#X connect 4 0 1 0;
#X connect 5 0 3 0;
#X connect 6 0 5 0;
#X connect 6 1 9 0;
#X connect 8 0 4 1;
#X connect 9 0 1 0;
#X restore 235 355 pd env2;
#N canvas 0 23 450 300 env2 0;
#X obj 37 37 inlet;
#X obj 38 155 line~;
#X obj 29 204 *~;
#X msg 37 105 0;
#X obj 37 126 pack 0 200;
#X obj 37 84 del 2;
#X obj 37 63 t b b, f 14;
#X obj 29 225 outlet~;
#X obj 187 61 inlet;
#X msg 120 128 1 0;
#X connect 0 0 6 0;
#X connect 1 0 2 0;
#X connect 1 0 2 1;
#X connect 2 0 7 0;
#X connect 3 0 4 0;
#X connect 4 0 1 0;
#X connect 5 0 3 0;
#X connect 6 0 5 0;
#X connect 6 1 9 0;
#X connect 8 0 4 1;
#X connect 9 0 1 0;
#X restore 309 353 pd env2;
#X obj 182 220 del 40;
#X obj 238 277 del 40;
#X obj 308 320 del 40;
#X obj 120 417 *~ 0.25;
#X obj 125 377 *~;
#X obj 177 375 *~;
#X obj 430 349 * 5;
#X obj 524 323 t b f;
#X obj 235 378 *~;
#X obj 308 381 *~;
#X obj 372 78 * 5;
#X obj 120 438 outlet~;
#X obj 372 52 inlet;
#X obj 523 287 inlet;
#X text 378 30 delay;
#X text 562 304 decay;
#X text 428 370 final delay is stretched out by a factor of [decay]
;
#X connect 0 0 6 0;
#X connect 0 0 2 0;
#X connect 1 0 2 1;
#X connect 1 0 3 1;
#X connect 1 0 4 1;
#X connect 1 0 12 0;
#X connect 2 0 10 0;
#X connect 2 0 10 1;
#X connect 3 0 11 0;
#X connect 3 0 11 1;
#X connect 4 0 14 0;
#X connect 4 0 14 1;
#X connect 5 0 15 0;
#X connect 5 0 15 1;
#X connect 6 0 7 0;
#X connect 6 0 3 0;
#X connect 7 0 8 0;
#X connect 7 0 4 0;
#X connect 8 0 5 0;
#X connect 9 0 17 0;
#X connect 10 0 9 0;
#X connect 11 0 9 0;
#X connect 12 0 5 1;
#X connect 13 0 12 0;
#X connect 13 1 12 1;
#X connect 14 0 9 0;
#X connect 15 0 9 0;
#X connect 16 0 1 0;
#X connect 18 0 16 0;
#X connect 18 0 6 1;
#X connect 18 0 7 1;
#X connect 18 0 8 1;
#X connect 19 0 13 0;
#X restore 78 293 pd multi_env;
#X obj 259 259 inlet;
#X obj 120 80 inlet;
#X obj 169 104 inlet;
#X text 299 262 decay;
#X text 206 237 delay;
#X text 180 89 width;
#X text 119 57 cutoff;
#X text 43 262 trig;
#X connect 0 0 11 0;
#X connect 1 0 6 0;
#X connect 2 0 11 1;
#X connect 4 0 7 1;
#X connect 5 0 6 1;
#X connect 5 0 10 0;
#X connect 6 0 4 0;
#X connect 7 0 3 0;
#X connect 8 0 9 0;
#X connect 9 0 10 0;
#X connect 9 1 10 1;
#X connect 10 0 4 1;
#X connect 11 0 7 0;
#X connect 12 0 11 2;
#X connect 13 0 5 0;
#X connect 14 0 8 0;
#X restore 737 644 pd tr808-clap;
#X f 62;
#X obj 955 500 hsl 128 15 50 5000 1 0 empty tr808cp_cutoff empty -2
-8 0 10 -262144 -1 -1 12700 1;
#X obj 968 527 hsl 128 15 50 5000 1 0 empty tr808cp_width empty -2
-8 0 10 -262144 -1 -1 1000 1;
#X obj 1127 583 hsl 128 15 1 50 1 0 empty tr808cp_decay empty -2 -8
0 10 -262144 -1 -1 1700 1;
#X obj 1060 559 hsl 128 15 2 40 1 0 empty tr808cp_delay empty -2 -8
0 10 -262144 -1 -1 6606 1;
#X floatatom 847 532 5 0 0 1 cutoff - -;
#X floatatom 936 537 5 0 0 1 width - -;
#X floatatom 1057 592 5 0 0 1 delay - -;
#X floatatom 1124 616 5 0 0 1 decay - -;
#X msg 1140 760 \; tr808cp_cutoff 750 \; tr808cp_width 1000 \; tr808cp_delay
11 \; tr808cp_decay 3.5 \;;
#X msg 1311 760 \; tr808cp_cutoff 800 \; tr808cp_width 1500 \; tr808cp_delay
8 \; tr808cp_decay 3.5 \;;
#X msg 1673 760 \; tr808cp_cutoff 1600 \; tr808cp_width 600 \; tr808cp_delay
18 \; tr808cp_decay 5.5 \;;
#X msg 1485 760 \; tr808cp_cutoff 1250 \; tr808cp_width 500 \; tr808cp_delay
14 \; tr808cp_decay 4.5 \;;
#X obj 789 558 r clap;
#X obj 1458 720 loadbang;
#N canvas 207 51 634 693 kick_synth 0;
#X floatatom 267 137 5 0 0 0 - - -;
#X text 270 197 fDec = 250;
#X floatatom 292 356 5 0 0 0 - - -;
#X text 327 360 pScale = 1;
#X obj 233 401 *~ 1;
#X obj 233 422 phasor~;
#X obj 214 107 bng 15 250 50 0 empty empty empty 17 7 0 10 -262144
-1 -1;
#X obj 233 442 expr~ if ($v1 > 0.5 \, 0 \, 1);
#X obj 265 471 noise~;
#X floatatom 450 371 5 0 0 0 - - -;
#X obj 339 413 *~ 1.5;
#X obj 234 517 vcf~ 0.5;
#X obj 199 625 *~;
#X obj 357 535 osc~;
#X floatatom 488 471 5 0 0 0 - - -;
#X obj 356 504 *~ 1;
#X obj 221 160 f 250;
#X obj 210 46 inlet;
#X text 204 25 trig;
#X obj 265 115 inlet;
#X text 265 93 decay time;
#X obj 292 325 inlet;
#X text 290 305 pitchScale;
#X text 432 322 filterScale;
#X obj 432 336 inlet;
#X text 453 448 sineVol;
#X obj 199 646 outlet~;
#X obj 500 447 inlet;
#N canvas 0 23 450 300 vol_env 0;
#X obj 125 167 vline~;
#X obj 125 188 *~;
#X msg 115 115 0.5 \, 1 5 \, 0.5 60 5 \, 0 \$1 65;
#X obj 108 69 inlet;
#X obj 125 209 outlet~;
#X connect 0 0 1 0;
#X connect 0 0 1 1;
#X connect 1 0 4 0;
#X connect 2 0 0 0;
#X connect 3 0 2 0;
#X restore 51 502 pd vol_env;
#N canvas 0 23 450 300 pitch_env 0;
#X obj 37 37 inlet;
#X obj 33 107 vline~;
#X obj 36 222 mtof~;
#X msg 36 73 1 \, 0.5 5 \, 0 \$1 5;
#X obj 33 155 *~ 80;
#X obj 33 176 +~ 29;
#X obj 33 128 *~;
#X obj 36 243 outlet~;
#X connect 0 0 3 0;
#X connect 1 0 6 0;
#X connect 1 0 6 1;
#X connect 2 0 7 0;
#X connect 3 0 1 0;
#X connect 4 0 5 0;
#X connect 5 0 2 0;
#X connect 6 0 4 0;
#X restore 221 247 pd pitch_env;
#X obj 204 565 /~ 8;
#X connect 0 0 16 1;
#X connect 2 0 4 1;
#X connect 4 0 5 0;
#X connect 5 0 7 0;
#X connect 6 0 16 0;
#X connect 7 0 11 0;
#X connect 8 0 11 0;
#X connect 9 0 10 1;
#X connect 10 0 11 1;
#X connect 11 0 30 0;
#X connect 11 1 12 1;
#X connect 12 0 26 0;
#X connect 13 0 12 1;
#X connect 14 0 15 1;
#X connect 15 0 13 0;
#X connect 16 0 28 0;
#X connect 16 0 29 0;
#X connect 17 0 6 0;
#X connect 19 0 0 0;
#X connect 21 0 2 0;
#X connect 24 0 9 0;
#X connect 27 0 14 0;
#X connect 28 0 12 0;
#X connect 29 0 4 0;
#X connect 29 0 10 0;
#X connect 29 0 15 0;
#X connect 30 0 12 1;
#X restore 41 346 pd kick_synth;
#X f 64;
#X obj 51 104 bng 15 250 50 0 empty empty empty 17 7 0 10 -262144 -1
-1;
#X floatatom 115 306 5 0 0 1 decay - -;
#X obj 85 157 vsl 15 128 50 2000 1 0 empty kick_decay empty 0 -9 0
10 -262144 -1 -1 8399 1;
#X floatatom 162 288 5 0 0 1 pitch_scale - -;
#X obj 150 155 vsl 15 128 0.1 3 0 0 empty kick_pitch empty 0 -9 0 10
-262144 -1 -1 998 1;
#X floatatom 404 311 5 0 0 1 sine_scale - -;
#X obj 374 162 vsl 15 128 0.5 100 1 0 empty kick_sine empty 0 -9 0
10 -262144 -1 -1 198 1;
#X obj 11 2 r kick;
#X floatatom 300 306 5 0 0 1 filter_scale - -;
#X obj 270 157 vsl 15 128 0.1 3 0 0 empty kick_filter empty 0 -9 0
10 -262144 -1 -1 9897 1;
#X msg 254 67 \; kick_decay 250 \; kick_pitch 1 \; kick_filter 1.5
\; kick_sine 1 \;;
#X msg 542 75 \; kick_decay 150 \; kick_pitch 0.5 \; kick_filter 1.5
\; kick_sine 1 \;;
#X msg 700 97 \; kick_decay 450 \; kick_pitch 0.25 \; kick_filter 0.5
\; kick_sine 1 \;;
#X msg 843 97 \; kick_decay 1500 \; kick_pitch 0.5 \; kick_filter 0.5
\; kick_sine 0.5 \;;
#X msg 404 67 \; kick_decay 50 \; kick_pitch 2.25 \; kick_filter 1.5
\; kick_sine 0.8 \;;
#N canvas 0 23 645 536 cymbal 0;
#X obj 161 56 noise~;
#X floatatom 413 87 5 0 0 0 - - -;
#N canvas 0 23 858 387 six_pulse_oscs 0;
#X obj 37 37 inlet;
#X obj 26 156 phasor~;
#X obj 26 177 expr~ $v1 > 0.55;
#X obj 26 232 *~ 0.9;
#X obj 130 121 * 1.342;
#X obj 131 156 phasor~;
#X obj 131 177 expr~ $v1 > 0.55;
#X obj 235 156 phasor~;
#X obj 235 177 expr~ $v1 > 0.55;
#X obj 340 156 phasor~;
#X obj 340 177 expr~ $v1 > 0.55;
#X obj 444 156 phasor~;
#X obj 444 177 expr~ $v1 > 0.55;
#X obj 549 156 phasor~;
#X obj 549 177 expr~ $v1 > 0.55;
#X obj 234 123 * 1.2312;
#X obj 341 121 * 1.6532;
#X obj 444 122 * 1.9523;
#X obj 548 120 * 2.1523;
#X obj 26 253 outlet~;
#X connect 0 0 4 0;
#X connect 0 0 18 0;
#X connect 0 0 17 0;
#X connect 0 0 16 0;
#X connect 0 0 15 0;
#X connect 0 0 1 0;
#X connect 1 0 2 0;
#X connect 2 0 3 0;
#X connect 3 0 19 0;
#X connect 4 0 5 0;
#X connect 5 0 6 0;
#X connect 6 0 3 0;
#X connect 7 0 8 0;
#X connect 8 0 3 0;
#X connect 9 0 10 0;
#X connect 10 0 3 0;
#X connect 11 0 12 0;
#X connect 12 0 3 0;
#X connect 13 0 14 0;
#X connect 14 0 3 0;
#X connect 15 0 7 0;
#X connect 16 0 9 0;
#X connect 17 0 11 0;
#X connect 18 0 13 0;
#X restore 413 107 pd six_pulse_oscs;
#X obj 161 258 *~;
#X floatatom 371 69 5 0 0 0 - - -;
#X obj 328 66 bng 15 250 50 0 empty empty empty 17 7 0 10 -262144 -1
-1;
#X obj 161 117 *~;
#N canvas 0 23 305 203 vol_env 0;
#X obj 74 76 f 250;
#X obj 72 43 inlet;
#X obj 128 38 inlet;
#X obj 76 126 vline~;
#X obj 76 147 outlet~;
#X msg 76 105 1 2 \, 0.4 \$1 2 \, 0 \$1 \$1;
#X connect 0 0 5 0;
#X connect 1 0 0 0;
#X connect 2 0 0 1;
#X connect 3 0 4 0;
#X connect 5 0 3 0;
#X restore 179 234 pd vol_env;
#N canvas 0 23 305 203 noise_env 0;
#X obj 72 43 inlet;
#X obj 128 38 inlet;
#X obj 68 141 line~;
#X msg 69 117 1 \, 0.6 \$1;
#X obj 87 72 f 250;
#X obj 87 93 * 0.5;
#X obj 71 171 outlet~;
#X connect 0 0 4 0;
#X connect 1 0 4 1;
#X connect 2 0 6 0;
#X connect 3 0 2 0;
#X connect 4 0 5 0;
#X connect 5 0 3 0;
#X restore 198 102 pd noise_env;
#X obj 193 273 delread~ \$0-del 5;
#X obj 31 296 delwrite~ \$0-del 10;
#N canvas 0 23 450 300 filters 0;
#X obj 36 37 inlet~;
#X obj 43 248 biquad~ 1.86507 -0.892661 0.894294 -1.78859 0.894294
;
#X obj 38 124 biquad~ 0.88843 -0.568945 0.614344 -1.22869 0.614344
;
#X obj 42 201 biquad~ 0.88843 -0.568945 0.614344 -1.22869 0.614344
;
#X obj 42 81 biquad~ 0.638282 -0.176456 0.134544 0.269087 0.134544
;
#X text 214 106 6800Hz resonant hipass \, Q=1.5;
#X text 210 53 7000Hz resonant lowpass \, Q=0.6;
#X text 220 182 6800Hz resonant hipass \, Q=1.5;
#X text 228 230 1200Hz resonant hipass \, Q=1.5;
#X obj 43 269 outlet~;
#X connect 0 0 4 0;
#X connect 1 0 9 0;
#X connect 2 0 3 0;
#X connect 3 0 1 0;
#X connect 4 0 2 0;
#X restore 161 154 pd filters;
#X obj 330 38 inlet;
#X obj 372 42 inlet;
#X obj 416 43 inlet;
#X text 461 47 basefreq;
#X text 368 24 dur;
#X text 290 21 trig;
#X obj 161 349 outlet~;
#X obj 161 315 *~ 0.5;
#X obj 413 128 *~ 1;
#X obj 461 65 loadbang;
#X msg 461 86 220;
#X connect 0 0 6 0;
#X connect 1 0 2 0;
#X connect 2 0 20 0;
#X connect 3 0 10 0;
#X connect 3 0 19 0;
#X connect 4 0 7 1;
#X connect 4 0 8 1;
#X connect 5 0 7 0;
#X connect 5 0 8 0;
#X connect 6 0 11 0;
#X connect 7 0 3 1;
#X connect 8 0 6 1;
#X connect 9 0 19 0;
#X connect 11 0 3 0;
#X connect 12 0 5 0;
#X connect 13 0 4 0;
#X connect 14 0 1 0;
#X connect 19 0 18 0;
#X connect 20 0 11 0;
#X connect 21 0 22 0;
#X connect 22 0 1 0;
#X restore 77 793 pd cymbal;
#X obj 56 725 bng 15 250 50 0 empty empty empty 17 7 0 10 -262144 -1
-1;
#X floatatom 119 767 5 0 0 1 decay - -;
#X obj 119 618 vsl 15 128 50 2000 1 0 empty hh_decay empty 0 -9 0 10
-262144 -1 -1 1396 1;
#X floatatom 197 767 5 0 0 1 pitch - -;
#X obj 197 618 vsl 15 128 100 1000 1 0 empty hh_pitch empty 0 -9 0
10 -262144 -1 -1 6187 1;
#X msg 524 830 \; hh_decay 250 \; hh_pitch 250 \;;
#X msg 752 844 \; hh_decay 70 \; hh_pitch 500 \;;
#X msg 642 844 \; hh_decay 170 \; hh_pitch 200 \;;
#X msg 878 844 \; hh_decay 750 \; hh_pitch 450 \;;
#X obj 152 5 random 100;
#X obj 838 30 moses 80;
#X obj 254 30 moses 15;
#X obj 404 30 moses 45;
#X obj 698 30 moses 75;
#X obj 568 30 moses 60;
#X obj 135 75 moses 110;
#X obj 1458 683 moses 80;
#X obj 1294 683 moses 65;
#X obj 1144 683 moses 35;
#X obj 1491 113 r snare;
#X obj 994 223 random 100;
#X obj 994 260 moses 15;
#X obj 1144 223 moses 45;
#X obj 1320 245 moses 60;
#X obj 1114 168 moses 110;
#X obj 385 667 moses 110;
#X obj 524 793 moses 40;
#X obj 838 816 moses 95;
#X obj 674 793 moses 65;
#X obj 659 470 bng 42 250 50 0 empty empty empty 17 7 0 10 -258113
-1 -1;
#X obj 718 470 bng 42 250 50 0 empty empty empty 17 7 0 10 -4034 -1
-1;
#X obj 775 470 bng 42 250 50 0 empty empty empty 17 7 0 10 -257985
-1 -1;
#X obj 829 470 bng 42 250 50 0 empty empty empty 17 7 0 10 -58176 -1
-1;
#X obj 67 559 r cymbal;
#X obj 1086 191 bng 15 250 50 0 empty empty empty 17 7 0 10 -262144
-1 -1;
#X obj 135 99 bng 15 250 50 0 empty empty empty 17 7 0 10 -262144 -1
-1;
#X obj 478 689 bng 15 250 50 0 empty empty empty 17 7 0 10 -262144
-1 -1;
#X obj 995 753 bng 15 250 50 0 empty empty empty 17 7 0 10 -262144
-1 -1;
#X obj 1049 741 random 100;
#X obj 524 724 random 100;
#X obj 301 643 random 300;
#X obj 51 30 random 300;
#X obj 1027 145 random 300;
#X obj 661 410 hsl 180 50 0 2 0 0 empty empty empty -2 -8 0 10 -4032
-1 -1 17900 1;
#X obj 781 729 *~;
#X obj 41 383 *~ 0.7;
#X obj 77 817 *~ 2;
#X obj 780 705 *~ 1;
#X obj 849 411 bng 30 250 50 0 change-drum empty empty 17 7 0 10 -99865
-1 -1;
#X obj 1526 268 *~ 0.7;
#X obj 780 668 *~ 2.2;
#X obj 595 249 inlet;
#X obj 595 273 sel 0 1 2 3;
#X msg 658 219 0;
#X msg 693 219 1;
#X msg 729 217 2;
#X msg 764 218 3;
#X obj 558 175 tgl 15 0 empty empty empty 17 7 0 10 -262144 -1 -1 0
1;
#X obj 558 199 metro 250;
#X obj 779 781 outlet~;
#X msg 440 380 \; kick_decay 573.5 \; kick_pitch 0.328 \; kick_filter
2.36 \; kick_sine 0.543 \; \; hh_decay 75 \; hh_pitch 307 \; \; tr808sn_decay
787 \; tr808sn_noise 1463 \; \; tr808cp_cutoff 5000 \; tr808cp_width
71.85 \; tr808cp_delay 9.5 \; tr808cp_decay 1.688 \;;
#X obj 310 413 loadbang;
#X msg 310 437 2;
#X connect 1 0 2 0;
#X connect 1 0 77 0;
#X connect 2 0 94 0;
#X connect 3 0 2 1;
#X connect 4 0 3 0;
#X connect 5 0 2 2;
#X connect 6 0 5 0;
#X connect 11 0 8 0;
#X connect 12 0 13 0;
#X connect 12 0 76 0;
#X connect 13 0 95 0;
#X connect 14 0 18 0;
#X connect 15 0 19 0;
#X connect 16 0 21 0;
#X connect 17 0 20 0;
#X connect 18 0 13 1;
#X connect 19 0 13 2;
#X connect 20 0 13 3;
#X connect 21 0 13 4;
#X connect 26 0 12 0;
#X connect 27 0 25 0;
#X connect 28 0 90 0;
#X connect 29 0 28 0;
#X connect 29 0 75 0;
#X connect 30 0 28 1;
#X connect 31 0 30 0;
#X connect 32 0 28 2;
#X connect 33 0 32 0;
#X connect 34 0 28 4;
#X connect 35 0 34 0;
#X connect 36 0 29 0;
#X connect 37 0 28 3;
#X connect 38 0 37 0;
#X connect 44 0 91 0;
#X connect 45 0 44 0;
#X connect 45 0 74 0;
#X connect 46 0 44 1;
#X connect 47 0 46 0;
#X connect 48 0 44 2;
#X connect 49 0 48 0;
#X connect 54 0 56 0;
#X connect 55 1 42 0;
#X connect 56 0 39 0;
#X connect 56 1 57 0;
#X connect 57 0 43 0;
#X connect 57 1 59 0;
#X connect 58 0 41 0;
#X connect 58 1 55 0;
#X connect 59 0 40 0;
#X connect 59 1 58 0;
#X connect 60 0 80 0;
#X connect 61 0 25 0;
#X connect 61 1 24 0;
#X connect 62 0 23 0;
#X connect 62 1 61 0;
#X connect 63 0 22 0;
#X connect 63 1 62 0;
#X connect 64 0 1 0;
#X connect 65 0 66 0;
#X connect 66 0 10 0;
#X connect 66 1 67 0;
#X connect 67 0 7 0;
#X connect 67 1 68 0;
#X connect 68 0 8 0;
#X connect 68 1 9 0;
#X connect 69 0 79 0;
#X connect 70 0 81 0;
#X connect 71 0 50 0;
#X connect 71 1 73 0;
#X connect 72 0 51 0;
#X connect 72 1 53 0;
#X connect 73 0 52 0;
#X connect 73 1 72 0;
#X connect 78 0 45 0;
#X connect 79 0 65 0;
#X connect 80 0 54 0;
#X connect 81 0 84 0;
#X connect 82 0 83 0;
#X connect 83 0 63 0;
#X connect 84 0 71 0;
#X connect 85 0 70 0;
#X connect 86 0 60 0;
#X connect 87 0 69 0;
#X connect 88 0 89 1;
#X connect 89 0 104 0;
#X connect 90 0 92 0;
#X connect 91 0 92 0;
#X connect 92 0 89 0;
#X connect 94 0 92 0;
#X connect 95 0 92 0;
#X connect 96 0 97 0;
#X connect 97 0 29 0;
#X connect 97 1 45 0;
#X connect 97 2 1 0;
#X connect 97 3 12 0;
#X connect 98 0 97 0;
#X connect 99 0 97 0;
#X connect 100 0 97 0;
#X connect 101 0 97 0;
#X connect 102 0 103 0;
#X connect 103 0 101 0;
#X connect 106 0 105 0;
#X connect 106 0 107 0;
#X connect 107 0 88 0;
#X coords 0 -1 1 1 240 120 2 650 400;
#X restore 960 255 pd drum_machine;
#X msg 1067 204 0;
#X msg 1102 204 1;
#X msg 1138 202 2;
#X msg 1173 203 3;
#N canvas -8 -8 1768 909 dorian 0;
#X obj 111 358 outlet;
#X obj 112 15 inlet;
#X obj 117 107 moses 50;
#X obj 304 90 moses 70;
#X obj 66 142 bang;
#X obj 66 166 random 10;
#X msg 66 214 2;
#X msg 126 214 5;
#X msg 172 212 9;
#X obj 66 190 moses 4;
#X obj 126 190 moses 6;
#X obj 233 145 bang;
#X obj 233 169 random 10;
#X msg 233 217 0;
#X msg 293 217 4;
#X msg 362 219 9;
#X obj 233 193 moses 3;
#X obj 293 192 moses 5;
#X obj 363 193 moses 7;
#X msg 408 216 7;
#X obj 465 162 bang;
#X obj 465 186 random 10;
#X obj 465 210 moses 3;
#X obj 525 209 moses 5;
#X obj 595 210 moses 7;
#X msg 465 234 4;
#X msg 525 234 7;
#X msg 594 236 11;
#X msg 640 233 14;
#X obj 114 61 spigot;
#X obj 207 28 inlet;
#X connect 1 0 29 0;
#X connect 2 0 4 0;
#X connect 2 1 3 0;
#X connect 3 0 11 0;
#X connect 3 1 20 0;
#X connect 4 0 5 0;
#X connect 5 0 9 0;
#X connect 6 0 0 0;
#X connect 7 0 0 0;
#X connect 8 0 0 0;
#X connect 9 0 6 0;
#X connect 9 1 10 0;
#X connect 10 0 7 0;
#X connect 10 1 8 0;
#X connect 11 0 12 0;
#X connect 12 0 16 0;
#X connect 13 0 0 0;
#X connect 14 0 0 0;
#X connect 15 0 0 0;
#X connect 16 0 13 0;
#X connect 16 1 17 0;
#X connect 17 0 14 0;
#X connect 17 1 18 0;
#X connect 18 0 15 0;
#X connect 18 1 19 0;
#X connect 19 0 0 0;
#X connect 20 0 21 0;
#X connect 21 0 22 0;
#X connect 22 0 25 0;
#X connect 22 1 23 0;
#X connect 23 0 26 0;
#X connect 23 1 24 0;
#X connect 24 0 27 0;
#X connect 24 1 28 0;
#X connect 25 0 0 0;
#X connect 26 0 0 0;
#X connect 27 0 0 0;
#X connect 28 0 0 0;
#X connect 29 0 2 0;
#X connect 30 0 29 1;
#X restore 605 363 pd dorian;
#X obj 689 122 tgl 15 0 empty empty empty 17 7 0 10 -262144 -1 -1 0
1;
#X obj 689 142 metro 250;
#N canvas -8 -8 1768 909 dorian 0;
#X obj 111 358 outlet;
#X obj 112 15 inlet;
#X obj 117 107 moses 50;
#X obj 304 90 moses 70;
#X obj 66 142 bang;
#X obj 66 166 random 10;
#X msg 66 214 2;
#X msg 126 214 5;
#X msg 172 212 9;
#X obj 66 190 moses 4;
#X obj 126 190 moses 6;
#X obj 233 145 bang;
#X obj 233 169 random 10;
#X msg 233 217 0;
#X msg 293 217 4;
#X msg 362 219 9;
#X obj 233 193 moses 3;
#X obj 293 192 moses 5;
#X obj 363 193 moses 7;
#X msg 408 216 7;
#X obj 465 162 bang;
#X obj 465 186 random 10;
#X obj 465 210 moses 3;
#X obj 525 209 moses 5;
#X obj 595 210 moses 7;
#X msg 465 234 4;
#X msg 525 234 7;
#X msg 594 236 11;
#X msg 640 233 14;
#X obj 114 61 spigot;
#X obj 207 28 inlet;
#X obj 752 288 tgl 15 0 empty empty empty 17 7 0 10 -262144 -1 -1 0
1;
#X obj 752 336 f;
#X obj 752 360 + 1;
#X floatatom 752 408 5 0 0 0 - - -;
#X obj 752 384 % 16;
#X obj 740 461 + 1;
#X obj 728 515 sel 1 2 3 4 5 6 7 8 9 10 11 12 13 14 15 16;
#X msg 768 590 9;
#X floatatom 734 671 5 0 0 0 - - -;
#X msg 808 539 4;
#X msg 826 561 7;
#X msg 848 590 11;
#X msg 862 615 14;
#X msg 728 539 2;
#X msg 746 561 5;
#X msg 782 615 14;
#X msg 888 539 0;
#X msg 906 561 4;
#X msg 928 590 9;
#X msg 942 615 12;
#X msg 996 572 5;
#X msg 996 596 9;
#X msg 996 620 14;
#X msg 996 548 2;
#X obj 1139 294 tgl 15 0 empty empty empty 17 7 0 10 -262144 -1 -1
0 1;
#X obj 1139 342 f;
#X obj 1139 366 + 1;
#X floatatom 1139 414 5 0 0 0 - - -;
#X obj 1139 390 % 16;
#X obj 1127 467 + 1;
#X obj 1115 521 sel 1 2 3 4 5 6 7 8 9 10 11 12 13 14 15 16;
#X obj 1139 270 r perdeu;
#X msg 1115 545 14;
#X msg 1133 567 9;
#X msg 1155 596 5;
#X msg 1169 621 2;
#X msg 1195 545 14;
#X msg 1213 567 11;
#X msg 1235 596 7;
#X msg 1252 624 4;
#X msg 1261 548 12;
#X msg 1279 570 9;
#X msg 1301 599 5;
#X msg 1315 624 2;
#X msg 1333 544 9;
#X msg 1353 568 4;
#X msg 1373 593 0;
#X msg 1387 617 -3;
#X obj 752 264 r ganhou;
#X obj 752 312 metro 175;
#X obj 1139 318 metro 175;
#X connect 1 0 29 0;
#X connect 2 0 4 0;
#X connect 2 1 3 0;
#X connect 3 0 11 0;
#X connect 3 1 20 0;
#X connect 4 0 5 0;
#X connect 5 0 9 0;
#X connect 6 0 0 0;
#X connect 7 0 0 0;
#X connect 8 0 0 0;
#X connect 9 0 6 0;
#X connect 9 1 10 0;
#X connect 10 0 7 0;
#X connect 10 1 8 0;
#X connect 11 0 12 0;
#X connect 12 0 16 0;
#X connect 13 0 0 0;
#X connect 14 0 0 0;
#X connect 15 0 0 0;
#X connect 16 0 13 0;
#X connect 16 1 17 0;
#X connect 17 0 14 0;
#X connect 17 1 18 0;
#X connect 18 0 15 0;
#X connect 18 1 19 0;
#X connect 19 0 0 0;
#X connect 20 0 21 0;
#X connect 21 0 22 0;
#X connect 22 0 25 0;
#X connect 22 1 23 0;
#X connect 23 0 26 0;
#X connect 23 1 24 0;
#X connect 24 0 27 0;
#X connect 24 1 28 0;
#X connect 25 0 0 0;
#X connect 26 0 0 0;
#X connect 27 0 0 0;
#X connect 28 0 0 0;
#X connect 29 0 2 0;
#X connect 30 0 29 1;
#X connect 31 0 80 0;
#X connect 32 0 33 0;
#X connect 33 0 32 1;
#X connect 33 0 35 0;
#X connect 34 0 36 0;
#X connect 35 0 34 0;
#X connect 36 0 37 0;
#X connect 37 0 44 0;
#X connect 37 1 45 0;
#X connect 37 2 38 0;
#X connect 37 3 46 0;
#X connect 37 4 40 0;
#X connect 37 5 41 0;
#X connect 37 6 42 0;
#X connect 37 7 43 0;
#X connect 37 8 47 0;
#X connect 37 9 48 0;
#X connect 37 10 49 0;
#X connect 37 11 50 0;
#X connect 37 13 54 0;
#X connect 37 15 31 0;
#X connect 38 0 39 0;
#X connect 39 0 0 0;
#X connect 40 0 39 0;
#X connect 41 0 39 0;
#X connect 42 0 39 0;
#X connect 43 0 39 0;
#X connect 44 0 39 0;
#X connect 45 0 39 0;
#X connect 46 0 39 0;
#X connect 47 0 39 0;
#X connect 48 0 39 0;
#X connect 49 0 39 0;
#X connect 50 0 39 0;
#X connect 51 0 52 0;
#X connect 51 0 39 0;
#X connect 52 0 53 0;
#X connect 52 0 39 0;
#X connect 53 0 39 0;
#X connect 54 0 51 0;
#X connect 54 0 39 0;
#X connect 55 0 81 0;
#X connect 56 0 57 0;
#X connect 57 0 56 1;
#X connect 57 0 59 0;
#X connect 58 0 60 0;
#X connect 59 0 58 0;
#X connect 60 0 61 0;
#X connect 61 0 63 0;
#X connect 61 0 39 0;
#X connect 61 1 64 0;
#X connect 61 2 65 0;
#X connect 61 3 66 0;
#X connect 61 4 67 0;
#X connect 61 5 68 0;
#X connect 61 6 69 0;
#X connect 61 7 70 0;
#X connect 61 8 71 0;
#X connect 61 9 72 0;
#X connect 61 10 73 0;
#X connect 61 11 74 0;
#X connect 61 12 75 0;
#X connect 61 13 76 0;
#X connect 61 14 77 0;
#X connect 61 15 55 0;
#X connect 61 15 78 0;
#X connect 62 0 55 0;
#X connect 63 0 39 0;
#X connect 64 0 39 0;
#X connect 65 0 39 0;
#X connect 66 0 39 0;
#X connect 67 0 39 0;
#X connect 68 0 39 0;
#X connect 69 0 39 0;
#X connect 70 0 39 0;
#X connect 71 0 39 0;
#X connect 72 0 39 0;
#X connect 73 0 39 0;
#X connect 74 0 39 0;
#X connect 75 0 39 0;
#X connect 76 0 39 0;
#X connect 77 0 39 0;
#X connect 78 0 39 0;
#X connect 79 0 31 0;
#X connect 80 0 32 0;
#X connect 81 0 56 0;
#X restore 692 366 pd dorian;
#X obj 692 390 + 60;
#N canvas 0 50 450 300 rhythm 0;
#X obj 37 37 inlet;
#X obj 37 61 tabread rhythm1;
#X obj 36 140 outlet;
#X obj 247 40 table rhythm1;
#X floatatom 87 104 5 0 0 0 - - -;
#X msg 211 101 \; rhythm1 0 1 0 0 0 0 0 0 0;
#X connect 0 0 1 0;
#X connect 1 0 2 0;
#X connect 1 0 4 0;
#X restore 688 221 pd rhythm;
#X obj 623 246 bng 15 250 50 0 empty empty empty 17 7 0 10 -262144
-1 -1;
#N canvas 0 50 450 300 rhythm 0;
#X obj 37 37 inlet;
#X obj 36 140 outlet;
#X floatatom 87 104 5 0 0 0 - - -;
#X obj 37 61 tabread rhythm2;
#X obj 247 40 table rhythm2;
#X msg 150 247 \; rhythm2 0 1 0 0 1 1 0 1 0;
#X connect 0 0 3 0;
#X connect 3 0 1 0;
#X connect 3 0 2 0;
#X restore 796 255 pd rhythm;
#N canvas -8 -8 1768 909 randomize 0;
#X msg 119 252 \; rhythm1 0 \$1 \$2 \$3 \$4 \$5 \$6 \$7 \$8;
#X obj 27 19 bng 15 250 50 0 empty empty empty 17 7 0 10 -262144 -1
-1;
#X obj 684 144 pack f f f f f f f f;
#X msg 684 168 \; rhythm2 0 \$1 \$2 \$3 \$4 \$5 \$6 \$7 \$8;
#X obj 683 8 bng 15 250 50 0 empty empty empty 17 7 0 10 -262144 -1
-1;
#X obj 683 28 random 10;
#X obj 683 52 moses 6;
#X msg 683 76 1;
#X msg 725 77 0;
#X floatatom 683 100 5 0 0 0 - - -;
#X obj 763 28 random 10;
#X msg 763 76 1;
#X msg 805 77 0;
#X floatatom 763 100 5 0 0 0 - - -;
#X obj 763 52 moses 4;
#X obj 843 28 random 10;
#X msg 843 76 1;
#X msg 885 77 0;
#X floatatom 843 100 5 0 0 0 - - -;
#X obj 843 52 moses 7;
#X obj 923 28 random 10;
#X msg 923 76 1;
#X msg 965 77 0;
#X floatatom 923 100 5 0 0 0 - - -;
#X obj 923 52 moses 3;
#X obj 1013 28 random 10;
#X obj 1013 52 moses 6;
#X msg 1013 76 1;
#X msg 1055 77 0;
#X floatatom 1013 100 5 0 0 0 - - -;
#X obj 1093 28 random 10;
#X msg 1093 76 1;
#X msg 1135 77 0;
#X floatatom 1093 100 5 0 0 0 - - -;
#X obj 1093 52 moses 4;
#X obj 1173 28 random 10;
#X msg 1173 76 1;
#X msg 1215 77 0;
#X floatatom 1173 100 5 0 0 0 - - -;
#X obj 1173 52 moses 7;
#X obj 1253 28 random 10;
#X msg 1253 76 1;
#X msg 1295 77 0;
#X floatatom 1253 100 5 0 0 0 - - -;
#X obj 1253 52 moses 3;
#X obj 1253 123 bang;
#X obj 17 50 random 10;
#X obj 17 74 moses 6;
#X msg 17 98 1;
#X msg 59 99 0;
#X floatatom 17 122 5 0 0 0 - - -;
#X msg 295 157 0;
#X obj 347 50 random 10;
#X obj 347 74 moses 6;
#X msg 347 98 1;
#X msg 389 99 0;
#X floatatom 347 122 5 0 0 0 - - -;
#X obj 587 145 bang;
#X obj 106 218 pack f f f f f f f f;
#X obj 109 468 pack f f f f f f f f;
#X obj 108 332 bng 15 250 50 0 empty empty empty 17 7 0 10 -262144
-1 -1;
#X obj 108 352 random 10;
#X obj 108 376 moses 6;
#X msg 108 400 1;
#X msg 150 401 0;
#X floatatom 108 424 5 0 0 0 - - -;
#X obj 188 352 random 10;
#X msg 188 400 1;
#X msg 230 401 0;
#X floatatom 188 424 5 0 0 0 - - -;
#X obj 188 376 moses 4;
#X obj 268 352 random 10;
#X msg 268 400 1;
#X msg 310 401 0;
#X floatatom 268 424 5 0 0 0 - - -;
#X obj 268 376 moses 7;
#X obj 348 352 random 10;
#X msg 348 400 1;
#X msg 390 401 0;
#X floatatom 348 424 5 0 0 0 - - -;
#X obj 348 376 moses 3;
#X obj 438 352 random 10;
#X obj 438 376 moses 6;
#X msg 438 400 1;
#X msg 480 401 0;
#X floatatom 438 424 5 0 0 0 - - -;
#X obj 518 352 random 10;
#X msg 518 400 1;
#X msg 560 401 0;
#X floatatom 518 424 5 0 0 0 - - -;
#X obj 518 376 moses 4;
#X obj 598 352 random 10;
#X msg 598 400 1;
#X msg 640 401 0;
#X floatatom 598 424 5 0 0 0 - - -;
#X obj 598 376 moses 7;
#X obj 678 352 random 10;
#X msg 678 400 1;
#X msg 720 401 0;
#X floatatom 678 424 5 0 0 0 - - -;
#X obj 678 376 moses 3;
#X obj 678 447 bang;
#X msg 109 492 \; rhythm3 0 \$1 \$2 \$3 \$4 \$5 \$6 \$7 \$8;
#X obj 472 248 inlet;
#X obj 472 272 sel 0 1 2;
#X obj 851 296 loadbang;
#X obj 46 176 t b f;
#X obj 113 176 bang;
#X obj 21 236 s bass-rhythm;
#X obj 21 212 +;
#X msg 166 144 1;
#X connect 1 0 46 0;
#X connect 1 0 52 0;
#X connect 1 0 51 0;
#X connect 2 0 3 0;
#X connect 4 0 5 0;
#X connect 4 0 10 0;
#X connect 4 0 40 0;
#X connect 4 0 35 0;
#X connect 4 0 30 0;
#X connect 4 0 25 0;
#X connect 4 0 20 0;
#X connect 4 0 15 0;
#X connect 5 0 6 0;
#X connect 6 0 7 0;
#X connect 6 1 8 0;
#X connect 7 0 9 0;
#X connect 8 0 9 0;
#X connect 9 0 2 0;
#X connect 10 0 14 0;
#X connect 11 0 13 0;
#X connect 12 0 13 0;
#X connect 13 0 2 1;
#X connect 14 0 11 0;
#X connect 14 1 12 0;
#X connect 15 0 19 0;
#X connect 16 0 18 0;
#X connect 17 0 18 0;
#X connect 18 0 2 2;
#X connect 19 0 16 0;
#X connect 19 1 17 0;
#X connect 20 0 24 0;
#X connect 21 0 23 0;
#X connect 22 0 23 0;
#X connect 23 0 2 3;
#X connect 24 0 21 0;
#X connect 24 1 22 0;
#X connect 25 0 26 0;
#X connect 26 0 27 0;
#X connect 26 1 28 0;
#X connect 27 0 29 0;
#X connect 28 0 29 0;
#X connect 29 0 2 4;
#X connect 30 0 34 0;
#X connect 31 0 33 0;
#X connect 32 0 33 0;
#X connect 33 0 2 5;
#X connect 34 0 31 0;
#X connect 34 1 32 0;
#X connect 35 0 39 0;
#X connect 36 0 38 0;
#X connect 37 0 38 0;
#X connect 38 0 2 6;
#X connect 39 0 36 0;
#X connect 39 1 37 0;
#X connect 40 0 44 0;
#X connect 41 0 43 0;
#X connect 42 0 43 0;
#X connect 43 0 2 7;
#X connect 43 0 45 0;
#X connect 44 0 41 0;
#X connect 44 1 42 0;
#X connect 45 0 9 0;
#X connect 46 0 47 0;
#X connect 47 0 48 0;
#X connect 47 1 49 0;
#X connect 48 0 50 0;
#X connect 49 0 50 0;
#X connect 49 0 54 0;
#X connect 50 0 58 0;
#X connect 50 0 109 0;
#X connect 51 0 58 7;
#X connect 51 0 58 6;
#X connect 51 0 58 5;
#X connect 51 0 58 3;
#X connect 51 0 58 2;
#X connect 51 0 58 1;
#X connect 52 0 53 0;
#X connect 53 0 54 0;
#X connect 53 1 55 0;
#X connect 54 0 56 0;
#X connect 55 0 56 0;
#X connect 55 0 110 0;
#X connect 56 0 58 4;
#X connect 56 0 107 0;
#X connect 56 0 106 0;
#X connect 57 0 50 0;
#X connect 58 0 0 0;
#X connect 59 0 102 0;
#X connect 60 0 61 0;
#X connect 60 0 66 0;
#X connect 60 0 96 0;
#X connect 60 0 91 0;
#X connect 60 0 86 0;
#X connect 60 0 81 0;
#X connect 60 0 76 0;
#X connect 60 0 71 0;
#X connect 61 0 62 0;
#X connect 62 0 63 0;
#X connect 62 1 64 0;
#X connect 63 0 65 0;
#X connect 64 0 65 0;
#X connect 65 0 59 0;
#X connect 66 0 70 0;
#X connect 67 0 69 0;
#X connect 68 0 69 0;
#X connect 69 0 59 1;
#X connect 70 0 67 0;
#X connect 70 1 68 0;
#X connect 71 0 75 0;
#X connect 72 0 74 0;
#X connect 73 0 74 0;
#X connect 74 0 59 2;
#X connect 75 0 72 0;
#X connect 75 1 73 0;
#X connect 76 0 80 0;
#X connect 77 0 79 0;
#X connect 78 0 79 0;
#X connect 79 0 59 3;
#X connect 80 0 77 0;
#X connect 80 1 78 0;
#X connect 81 0 82 0;
#X connect 82 0 83 0;
#X connect 82 1 84 0;
#X connect 83 0 85 0;
#X connect 84 0 85 0;
#X connect 85 0 59 4;
#X connect 86 0 90 0;
#X connect 87 0 89 0;
#X connect 88 0 89 0;
#X connect 89 0 59 5;
#X connect 90 0 87 0;
#X connect 90 1 88 0;
#X connect 91 0 95 0;
#X connect 92 0 94 0;
#X connect 93 0 94 0;
#X connect 94 0 59 6;
#X connect 95 0 92 0;
#X connect 95 1 93 0;
#X connect 96 0 100 0;
#X connect 97 0 99 0;
#X connect 98 0 99 0;
#X connect 99 0 59 7;
#X connect 99 0 101 0;
#X connect 100 0 97 0;
#X connect 100 1 98 0;
#X connect 101 0 65 0;
#X connect 103 0 104 0;
#X connect 104 0 1 0;
#X connect 104 1 4 0;
#X connect 104 2 60 0;
#X connect 105 0 4 0;
#X connect 105 0 60 0;
#X connect 105 0 1 0;
#X connect 106 0 109 0;
#X connect 106 1 109 1;
#X connect 107 0 50 0;
#X connect 109 0 108 0;
#X connect 110 0 48 0;
#X restore 825 380 pd randomize;
#N canvas 0 50 450 300 rhythm 0;
#X obj 37 37 inlet;
#X obj 36 140 outlet;
#X floatatom 87 104 5 0 0 0 - - -;
#X obj 247 40 table rhythm3;
#X obj 37 61 tabread rhythm3;
#X msg 150 247 \; rhythm3 0 1 0 0 1 1 0 1 0;
#X connect 0 0 4 0;
#X connect 4 0 1 0;
#X connect 4 0 2 0;
#X restore 829 227 pd rhythm;
#X obj 952 152 spigot;
#X obj 689 166 f;
#X obj 722 167 + 1;
#X obj 689 190 % 8;
#N canvas -7 0 882 900 bowed~ 0;
#X obj 158 175 mtof;
#X obj 158 199 phasor~;
#X obj 158 223 pow~ -1;
#X obj 158 247 -~ 0.25;
#X obj 158 271 cos~;
#X obj 158 295 +~;
#X obj 158 319 /~ 1;
#X obj 158 343 vcf~ 1.4;
#X obj 158 387 *~;
#X obj 158 411 /~ 20;
#X obj 161 555 hip~ 3;
#X obj 228 220 -~ 0.25;
#X msg 337 283 0.5 5;
#X msg 430 229 0 70;
#X obj 163 54 inlet;
#X obj 323 110 sel 0;
#X obj 161 579 outlet~;
#X obj 158 435 *~ 1;
#X floatatom 75 311 5 0 0 0 - - -;
#X msg 303 218 1 5;
#X obj 337 259 delay 5;
#X obj 317 374 line~;
#X obj 259 412 / 100;
#X floatatom 123 74 5 0 0 0 - - -;
#X floatatom 272 350 5 0 0 0 - - -;
#X obj 324 553 *~ 0.4;
#X obj 346 184 bang;
#X obj 426 169 bng 15 250 50 0 empty empty empty 17 7 0 10 -262144
-1 -1;
#X obj 254 38 inlet;
#X obj 230 274 *~ 1;
#X obj 228 244 sin~;
#X obj 299 491 delwrite~ c1 10;
#X obj 324 529 delread~ c1 0.5;
#X connect 0 0 1 0;
#X connect 0 0 18 0;
#X connect 1 0 2 0;
#X connect 1 0 11 0;
#X connect 2 0 3 0;
#X connect 3 0 4 0;
#X connect 4 0 5 0;
#X connect 5 0 6 0;
#X connect 6 0 7 0;
#X connect 7 0 8 0;
#X connect 7 1 8 0;
#X connect 8 0 9 0;
#X connect 9 0 17 0;
#X connect 10 0 16 0;
#X connect 11 0 30 0;
#X connect 12 0 21 0;
#X connect 13 0 21 0;
#X connect 14 0 0 0;
#X connect 15 0 27 0;
#X connect 15 1 19 0;
#X connect 15 1 24 0;
#X connect 15 1 26 0;
#X connect 17 0 10 0;
#X connect 17 0 31 0;
#X connect 18 0 7 1;
#X connect 19 0 21 0;
#X connect 20 0 12 0;
#X connect 21 0 8 1;
#X connect 22 0 17 1;
#X connect 23 0 0 0;
#X connect 24 0 22 0;
#X connect 25 0 10 0;
#X connect 25 0 31 0;
#X connect 26 0 20 0;
#X connect 27 0 13 0;
#X connect 28 0 15 0;
#X connect 29 0 5 1;
#X connect 30 0 29 0;
#X connect 32 0 25 0;
#X restore 402 384 pd bowed~;
#X obj 813 298 sel 0;
#X obj 813 322 random 5;
#X floatatom 759 83 5 0 0 0 - - -;
#X obj 969 18 r total_de_pares;
#X obj 600 200 sel 0;
#X obj 623 266 f;
#X obj 596 222 random 100;
#X obj 37 481 lop~ 17000;
#X obj 37 505 hip~ 40;
#X obj 467 525 lop~ 17000;
#X obj 963 494 lop~ 17000;
#X obj 963 518 hip~ 40;
#X floatatom 528 470 5 0 0 0 - - -;
#X obj 963 459 *~ 1;
#X obj 33 452 *~ 1;
#N canvas -8 -8 1768 909 binaural-pan 0;
#X obj 126 103 hsl 80 15 -2 2 0 0 empty empty empty -2 -8 0 10 -262144
-1 -1 3950 1;
#X obj 1254 323 inlet~;
#X obj 799 745 outlet~;
#X obj 581 744 outlet~;
#X obj 104 103 bng 15 250 50 0 empty empty empty 17 7 0 10 -4032 -1
-1;
#X obj 22 63 loadbang;
#X msg 21 90 0;
#N canvas -8 -8 1768 909 eponential_sigmoid 0;
#X obj 37 37 inlet;
#X obj 95 385 outlet;
#X obj 238 8 loadbang;
#X obj 167 39 inlet;
#X obj 62 114 moses 0.5;
#X obj 14 278 expr pow(2*$f1 \, 1/$f2)/2;
#X obj 200 276 expr 1 - (pow(2*(1-$f1) \, 1/$f2)/2);
#X obj 167 127 bang;
#X obj 167 107 moses 1e-006;
#X msg 167 148 1e-006;
#X text 272 128 constrain to >0;
#X obj 200 225 moses 1;
#X msg 239 247 1;
#X obj 167 80 f \$1;
#X obj 237 52 t b f;
#X msg 238 29 0.5;
#X connect 0 0 4 0;
#X connect 2 0 15 0;
#X connect 3 0 13 0;
#X connect 4 0 5 0;
#X connect 4 1 11 0;
#X connect 5 0 1 0;
#X connect 6 0 1 0;
#X connect 7 0 9 0;
#X connect 8 0 7 0;
#X connect 8 1 6 1;
#X connect 8 1 5 1;
#X connect 9 0 5 1;
#X connect 9 0 6 1;
#X connect 11 0 6 0;
#X connect 11 1 12 0;
#X connect 12 0 6 0;
#X connect 13 0 8 0;
#X connect 14 0 13 0;
#X connect 14 1 13 1;
#X connect 15 0 14 0;
#X restore 121 194 pd eponential_sigmoid 0.5;
#X obj 123 123 / 2;
#X obj 123 150 + 0.5;
#X text 917 226 ITD;
#X obj 113 36 inlet;
#X obj 26 24 inlet;
#X obj 739 224 expr if($f1<0 \, 0 \, $f1) \; if($f1>0 \, 0 \, $f1*-1)
\;;
#X text 309 194 ILD;
#X obj 142 342 dbtorms;
#X obj 300 357 dbtorms;
#X obj 303 282 * -1;
#X obj 300 310 + 100;
#X obj 459 482 delread~ channel1-l 0;
#X obj 646 482 delread~ channel1-r 0;
#X floatatom 476 429 5 0 0 0 - - -;
#X floatatom 683 427 5 0 0 0 - - -;
#X obj 402 369 delwrite~ channel1-l 2000;
#X obj 716 390 delwrite~ channel1-r 2000;
#X msg 144 393 \$1 50 100;
#X msg 300 404 \$1 50 100;
#X obj 580 684 *~;
#X obj 774 685 *~;
#X obj 144 417 line~;
#X obj 300 428 line~;
#X obj 142 248 * 10;
#X obj 142 295 + 90;
#X connect 0 0 8 0;
#X connect 0 0 13 0;
#X connect 1 0 23 0;
#X connect 1 0 24 0;
#X connect 4 0 6 0;
#X connect 5 0 6 0;
#X connect 6 0 0 0;
#X connect 7 0 31 0;
#X connect 8 0 9 0;
#X connect 9 0 7 0;
#X connect 11 0 0 0;
#X connect 12 0 4 0;
#X connect 13 0 21 0;
#X connect 13 1 22 0;
#X connect 15 0 25 0;
#X connect 16 0 26 0;
#X connect 17 0 18 0;
#X connect 18 0 16 0;
#X connect 19 0 27 0;
#X connect 20 0 28 0;
#X connect 21 0 19 0;
#X connect 22 0 20 0;
#X connect 25 0 29 0;
#X connect 26 0 30 0;
#X connect 27 0 3 0;
#X connect 28 0 2 0;
#X connect 29 0 28 1;
#X connect 30 0 27 1;
#X connect 31 0 17 0;
#X connect 31 0 32 0;
#X connect 32 0 15 0;
#X restore 50 677 pd binaural-pan;
#X floatatom 51 615 5 0 0 0 - - -;
#N canvas -8 -8 1768 909 binaural-pan 0;
#X obj 126 103 hsl 80 15 -2 2 0 0 empty empty empty -2 -8 0 10 -262144
-1 -1 3950 1;
#X obj 1254 323 inlet~;
#X obj 799 745 outlet~;
#X obj 581 744 outlet~;
#X obj 104 103 bng 15 250 50 0 empty empty empty 17 7 0 10 -4032 -1
-1;
#X obj 22 63 loadbang;
#X msg 21 90 0;
#N canvas -8 -8 1768 909 eponential_sigmoid 0;
#X obj 37 37 inlet;
#X obj 95 385 outlet;
#X obj 238 8 loadbang;
#X obj 167 39 inlet;
#X obj 62 114 moses 0.5;
#X obj 14 278 expr pow(2*$f1 \, 1/$f2)/2;
#X obj 200 276 expr 1 - (pow(2*(1-$f1) \, 1/$f2)/2);
#X obj 167 127 bang;
#X obj 167 107 moses 1e-006;
#X msg 167 148 1e-006;
#X text 272 128 constrain to >0;
#X obj 200 225 moses 1;
#X msg 239 247 1;
#X obj 167 80 f \$1;
#X obj 237 52 t b f;
#X msg 238 29 0.5;
#X connect 0 0 4 0;
#X connect 2 0 15 0;
#X connect 3 0 13 0;
#X connect 4 0 5 0;
#X connect 4 1 11 0;
#X connect 5 0 1 0;
#X connect 6 0 1 0;
#X connect 7 0 9 0;
#X connect 8 0 7 0;
#X connect 8 1 6 1;
#X connect 8 1 5 1;
#X connect 9 0 5 1;
#X connect 9 0 6 1;
#X connect 11 0 6 0;
#X connect 11 1 12 0;
#X connect 12 0 6 0;
#X connect 13 0 8 0;
#X connect 14 0 13 0;
#X connect 14 1 13 1;
#X connect 15 0 14 0;
#X restore 121 194 pd eponential_sigmoid 0.5;
#X obj 123 123 / 2;
#X obj 123 150 + 0.5;
#X text 917 226 ITD;
#X obj 113 36 inlet;
#X obj 26 24 inlet;
#X obj 739 224 expr if($f1<0 \, 0 \, $f1) \; if($f1>0 \, 0 \, $f1*-1)
\;;
#X text 309 194 ILD;
#X obj 142 342 dbtorms;
#X obj 300 357 dbtorms;
#X obj 303 282 * -1;
#X obj 300 310 + 100;
#X floatatom 476 429 5 0 0 0 - - -;
#X floatatom 683 427 5 0 0 0 - - -;
#X msg 144 393 \$1 50 100;
#X msg 300 404 \$1 50 100;
#X obj 580 684 *~;
#X obj 774 685 *~;
#X obj 144 417 line~;
#X obj 305 435 line~;
#X obj 402 369 delwrite~ channel2-l 2000;
#X obj 716 390 delwrite~ channel2-r 2000;
#X obj 646 481 delread~ channel2-r 0;
#X obj 459 482 delread~ channel2-l 0;
#X obj 142 295 + 90;
#X obj 142 248 * 10;
#X connect 0 0 8 0;
#X connect 0 0 13 0;
#X connect 1 0 27 0;
#X connect 1 0 28 0;
#X connect 4 0 6 0;
#X connect 5 0 6 0;
#X connect 6 0 0 0;
#X connect 7 0 32 0;
#X connect 8 0 9 0;
#X connect 9 0 7 0;
#X connect 11 0 0 0;
#X connect 12 0 4 0;
#X connect 13 0 19 0;
#X connect 13 1 20 0;
#X connect 15 0 21 0;
#X connect 16 0 22 0;
#X connect 17 0 18 0;
#X connect 18 0 16 0;
#X connect 19 0 30 0;
#X connect 20 0 29 0;
#X connect 21 0 25 0;
#X connect 22 0 26 0;
#X connect 23 0 3 0;
#X connect 24 0 2 0;
#X connect 25 0 24 1;
#X connect 26 0 23 1;
#X connect 29 0 24 0;
#X connect 30 0 23 0;
#X connect 31 0 15 0;
#X connect 32 0 17 0;
#X connect 32 0 31 0;
#X restore 667 681 pd binaural-pan;
#X floatatom 701 615 5 0 0 0 - - -;
#N canvas -8 -8 1768 909 binaural-pan 0;
#X obj 126 103 hsl 80 15 -2 2 0 0 empty empty empty -2 -8 0 10 -262144
-1 -1 3950 1;
#X obj 1254 323 inlet~;
#X obj 799 745 outlet~;
#X obj 581 744 outlet~;
#X obj 104 103 bng 15 250 50 0 empty empty empty 17 7 0 10 -4032 -1
-1;
#X obj 22 63 loadbang;
#X msg 21 90 0;
#N canvas -8 -8 1768 909 eponential_sigmoid 0;
#X obj 37 37 inlet;
#X obj 95 385 outlet;
#X obj 238 8 loadbang;
#X obj 167 39 inlet;
#X obj 62 114 moses 0.5;
#X obj 14 278 expr pow(2*$f1 \, 1/$f2)/2;
#X obj 200 276 expr 1 - (pow(2*(1-$f1) \, 1/$f2)/2);
#X obj 167 127 bang;
#X obj 167 107 moses 1e-006;
#X msg 167 148 1e-006;
#X text 272 128 constrain to >0;
#X obj 200 225 moses 1;
#X msg 239 247 1;
#X obj 167 80 f \$1;
#X obj 237 52 t b f;
#X msg 238 29 0.5;
#X connect 0 0 4 0;
#X connect 2 0 15 0;
#X connect 3 0 13 0;
#X connect 4 0 5 0;
#X connect 4 1 11 0;
#X connect 5 0 1 0;
#X connect 6 0 1 0;
#X connect 7 0 9 0;
#X connect 8 0 7 0;
#X connect 8 1 6 1;
#X connect 8 1 5 1;
#X connect 9 0 5 1;
#X connect 9 0 6 1;
#X connect 11 0 6 0;
#X connect 11 1 12 0;
#X connect 12 0 6 0;
#X connect 13 0 8 0;
#X connect 14 0 13 0;
#X connect 14 1 13 1;
#X connect 15 0 14 0;
#X restore 121 194 pd eponential_sigmoid 0.5;
#X obj 123 123 / 2;
#X obj 123 150 + 0.5;
#X text 917 226 ITD;
#X obj 113 36 inlet;
#X obj 26 24 inlet;
#X obj 739 224 expr if($f1<0 \, 0 \, $f1) \; if($f1>0 \, 0 \, $f1*-1)
\;;
#X text 309 194 ILD;
#X obj 142 342 dbtorms;
#X obj 300 357 dbtorms;
#X obj 303 282 * -1;
#X obj 300 310 + 100;
#X floatatom 476 429 5 0 0 0 - - -;
#X floatatom 683 427 5 0 0 0 - - -;
#X msg 144 393 \$1 50 100;
#X msg 300 404 \$1 50 100;
#X obj 580 684 *~;
#X obj 774 685 *~;
#X obj 144 417 line~;
#X obj 300 428 line~;
#X obj 402 369 delwrite~ channel3-l 2000;
#X obj 716 390 delwrite~ channel3-r 2000;
#X obj 646 482 delread~ channel3-r 0;
#X obj 459 482 delread~ channel3-l 0;
#X obj 142 248 * 10;
#X obj 142 295 + 90;
#X connect 0 0 8 0;
#X connect 0 0 13 0;
#X connect 1 0 27 0;
#X connect 1 0 28 0;
#X connect 4 0 6 0;
#X connect 5 0 6 0;
#X connect 6 0 0 0;
#X connect 7 0 31 0;
#X connect 8 0 9 0;
#X connect 9 0 7 0;
#X connect 11 0 0 0;
#X connect 12 0 4 0;
#X connect 13 0 19 0;
#X connect 13 1 20 0;
#X connect 15 0 21 0;
#X connect 16 0 22 0;
#X connect 17 0 18 0;
#X connect 18 0 16 0;
#X connect 19 0 30 0;
#X connect 20 0 29 0;
#X connect 21 0 25 0;
#X connect 22 0 26 0;
#X connect 23 0 3 0;
#X connect 24 0 2 0;
#X connect 25 0 24 1;
#X connect 26 0 23 1;
#X connect 29 0 24 0;
#X connect 30 0 23 0;
#X connect 31 0 17 0;
#X connect 31 0 32 0;
#X connect 32 0 15 0;
#X restore 994 626 pd binaural-pan;
#X floatatom 909 593 5 0 0 0 - - -;
#X obj 546 193 * 8;
#X obj 467 549 hip~ 20;
#X obj 1274 508 random 201;
#X obj 1274 537 int, f 5;
#X obj 1274 615 line;
#X obj 1274 639 / 100;
#X floatatom 1274 693 5 0 0 0 - - -;
#X obj 1286 451 bng 15 250 50 0 empty empty empty 17 7 0 10 -262144
-1 -1;
#X obj 1274 666 - 1;
#X obj 1274 564 pack;
#X msg 1274 591 \$1 \$2;
#X obj 1464 537 int, f 5;
#X obj 1464 615 line;
#X obj 1464 639 / 100;
#X floatatom 1464 693 5 0 0 0 - - -;
#X obj 1476 451 bng 15 250 50 0 empty empty empty 17 7 0 10 -262144
-1 -1;
#X obj 1464 564 pack;
#X msg 1464 591 \$1 \$2;
#X obj 1279 231 sel 0;
#X obj 1279 255 random 4;
#X obj 1279 279 sel 0;
#X obj 1419 255 random 4;
#X obj 1419 279 sel 0;
#X floatatom 623 771 5 0 0 0 - - -;
#X obj 701 729 r master_volume_music;
#X obj 662 756 hsl 128 15 0 1 0 0 empty empty empty -2 -8 0 10 -262144
-1 -1 1400 1;
#X obj 1058 159 sel 0 1 2 3 4 5 6 7;
#X obj 849 159 % 8;
#X obj 820 121 % 15;
#X obj 463 97 r bass-rhythm;
#X obj 511 155 t b f;
#X floatatom 1128 32 5 0 0 0 - - -;
#X obj 1128 55 s pares_feitos;
#X obj 827 32 r pares_feitos;
#X floatatom 1254 30 5 0 0 0 - - -;
#X obj 1254 53 s total_de_pares;
#X obj 933 57 /;
#X floatatom 933 81 5 0 0 0 - - -;
#X floatatom 933 128 5 0 0 0 - - -;
#X obj 864 62 + 1;
#X obj 960 37 + 1;
#X obj 1014 78 * -1;
#X floatatom 1014 126 5 0 0 0 - - -;
#X obj 933 104 * 180;
#X obj 1014 102 + 300;
#X obj 1011 725 mtof;
#X obj 1011 749 phasor~;
#X obj 1071 749 phasor~;
#X obj 1069 718 0.9;
#X obj 1011 773 *~;
#X obj 1006 882 *~ 1;
#X obj 1009 835 *~;
#X obj 1153 853 vline~;
#X msg 1161 801 1 55 \, 0.5 55 \, 0 200 300;
#X obj 1052 785 * 2;
#X obj 463 143 * 4;
#X obj 1450 190 * 8;
#X obj 887 634 r card-1;
#X obj 1105 537 r card-2-correct;
#X obj 1124 719 r card-2-incorrect;
#X obj 1010 859 *~ 10;
#X obj 1008 811 vcf~ 1000 35;
#X obj 1327 152 s Harmonics_karplus;
#X obj 1428 128 s decay_karplus;
#X floatatom 1442 94 5 0 0 0 - - -;
#X obj 1442 70 + 0.92;
#X obj 1442 46 * 0.065;
#X obj 474 491 *~ 35;
#X obj 1274 716 * -1;
#X obj 580 410 + 24;
#N canvas -8 -8 1768 909 wind 0;
#X obj 64 43 noise~;
#X obj 68 195 *~ 0;
#X obj 91 475 outlet~;
#X obj 129 95 vsl 15 128 0 1 0 0 empty empty empty 0 -9 0 10 -262144
-1 -1 12497 1;
#X obj 54 164 bp~ 300 5;
#N canvas -8 -8 1768 909 binaural-pan 0;
#X obj 126 103 hsl 80 15 -2 2 0 0 empty empty empty -2 -8 0 10 -262144
-1 -1 3950 1;
#X obj 1254 323 inlet~;
#X obj 799 745 outlet~;
#X obj 581 744 outlet~;
#X obj 104 103 bng 15 250 50 0 empty empty empty 17 7 0 10 -4032 -1
-1;
#X obj 22 63 loadbang;
#X msg 21 90 0;
#N canvas -8 -8 1768 909 eponential_sigmoid 0;
#X obj 37 37 inlet;
#X obj 95 385 outlet;
#X obj 238 8 loadbang;
#X obj 167 39 inlet;
#X obj 62 114 moses 0.5;
#X obj 14 278 expr pow(2*$f1 \, 1/$f2)/2;
#X obj 200 276 expr 1 - (pow(2*(1-$f1) \, 1/$f2)/2);
#X obj 167 127 bang;
#X obj 167 107 moses 1e-006;
#X msg 167 148 1e-006;
#X text 272 128 constrain to >0;
#X obj 200 225 moses 1;
#X msg 239 247 1;
#X obj 167 80 f \$1;
#X obj 237 52 t b f;
#X msg 238 29 0.5;
#X connect 0 0 4 0;
#X connect 2 0 15 0;
#X connect 3 0 13 0;
#X connect 4 0 5 0;
#X connect 4 1 11 0;
#X connect 5 0 1 0;
#X connect 6 0 1 0;
#X connect 7 0 9 0;
#X connect 8 0 7 0;
#X connect 8 1 6 1;
#X connect 8 1 5 1;
#X connect 9 0 5 1;
#X connect 9 0 6 1;
#X connect 11 0 6 0;
#X connect 11 1 12 0;
#X connect 12 0 6 0;
#X connect 13 0 8 0;
#X connect 14 0 13 0;
#X connect 14 1 13 1;
#X connect 15 0 14 0;
#X restore 121 194 pd eponential_sigmoid 0.5;
#X obj 123 123 / 2;
#X obj 123 150 + 0.5;
#X text 917 226 ITD;
#X obj 113 36 inlet;
#X obj 26 24 inlet;
#X obj 739 224 expr if($f1<0 \, 0 \, $f1) \; if($f1>0 \, 0 \, $f1*-1)
\;;
#X text 309 194 ILD;
#X obj 234 377 dbtorms;
#X obj 113 487 dbtorms;
#X obj 116 412 * -1;
#X obj 113 440 + 100;
#X floatatom 476 429 5 0 0 0 - - -;
#X floatatom 683 427 5 0 0 0 - - -;
#X msg 236 428 \$1 50 100;
#X msg 113 534 \$1 50 100;
#X obj 580 684 *~;
#X obj 774 685 *~;
#X obj 236 452 line~;
#X obj 113 558 line~;
#X obj 459 482 delread~ channel4-l 0;
#X obj 648 481 delread~ channel4-r 0;
#X obj 716 390 delwrite~ channel4-r 2000;
#X obj 402 369 delwrite~ channel4-l 2000;
#X obj 142 248 * 10;
#X obj 234 330 + 90;
#X floatatom 267 360 5 0 0 0 - - -;
#X floatatom 68 467 5 0 0 0 - - -;
#X connect 0 0 8 0;
#X connect 0 0 13 0;
#X connect 1 0 29 0;
#X connect 1 0 30 0;
#X connect 4 0 6 0;
#X connect 5 0 6 0;
#X connect 6 0 0 0;
#X connect 7 0 31 0;
#X connect 8 0 9 0;
#X connect 9 0 7 0;
#X connect 11 0 0 0;
#X connect 12 0 4 0;
#X connect 13 0 19 0;
#X connect 13 1 20 0;
#X connect 15 0 21 0;
#X connect 16 0 22 0;
#X connect 17 0 18 0;
#X connect 18 0 16 0;
#X connect 18 0 34 0;
#X connect 19 0 27 0;
#X connect 20 0 28 0;
#X connect 21 0 25 0;
#X connect 22 0 26 0;
#X connect 23 0 3 0;
#X connect 24 0 2 0;
#X connect 25 0 24 1;
#X connect 26 0 23 1;
#X connect 27 0 23 0;
#X connect 28 0 24 0;
#X connect 31 0 17 0;
#X connect 31 0 32 0;
#X connect 32 0 15 0;
#X connect 32 0 33 0;
#X restore 131 374 pd binaural-pan;
#X obj 191 474 outlet~;
#X obj 303 342 hsl 128 15 -2 2 0 0 empty empty empty -2 -8 0 10 -262144
-1 -1 0 1;
#X floatatom 301 381 5 0 0 0 - - -;
#X obj 206 210 *~ 0;
#X obj 285 116 vsl 15 128 0 1 0 0 empty empty empty 0 -9 0 10 -262144
-1 -1 12192 1;
#X obj 192 179 bp~ 1500 5;
#X obj 499 82 r proportion;
#X floatatom 497 176 5 0 0 0 - - -;
#X obj 497 199 - 1;
#X obj 497 223 * -1;
#X obj 376 282 r position-1;
#X obj 376 306 * -1;
#X obj 494 136 line;
#X msg 494 112 \$1 300 100;
#X obj 596 191 * -0.4;
#X obj 596 215 + 1;
#X obj 224 18 loadbang;
#X msg 224 42 0.04;
#X obj 150 284 *~ 0.7;
#X obj 109 239 *~ 0.7;
#X obj 178 247 *~ 0.7;
#X connect 0 0 4 0;
#X connect 0 0 11 0;
#X connect 1 0 25 0;
#X connect 3 0 1 1;
#X connect 4 0 1 0;
#X connect 5 0 2 0;
#X connect 5 1 6 0;
#X connect 7 0 8 0;
#X connect 8 0 5 1;
#X connect 9 0 26 0;
#X connect 10 0 9 1;
#X connect 11 0 9 0;
#X connect 12 0 19 0;
#X connect 13 0 14 0;
#X connect 14 0 15 0;
#X connect 15 0 10 0;
#X connect 16 0 17 0;
#X connect 17 0 7 0;
#X connect 18 0 13 0;
#X connect 18 0 20 0;
#X connect 19 0 18 0;
#X connect 20 0 21 0;
#X connect 21 0 3 0;
#X connect 22 0 23 0;
#X connect 23 0 19 0;
#X connect 24 0 5 2;
#X connect 25 0 24 0;
#X connect 26 0 24 0;
#X restore 410 662 pd wind;
#X obj 1130 118 s proportion;
#X obj 1464 716 s position-1;
#X obj 1464 508 random 201;
#X obj 1464 666 - 1;
#X obj 970 711 line;
#X obj 197 455 r proportion;
#X floatatom 197 479 5 0 0 0 - - -;
#X floatatom 197 550 5 0 0 0 - - -;
#X obj 438 437 *~ 1;
#X obj 173 111 / 4;
#X obj 336 57 sqrt;
#X obj 336 104 * 20;
#X obj 336 128 + 30;
#X obj 334 10 r total_de_pares;
#N canvas 0 50 450 300 bpmtoms 0;
#X obj 141 27 inlet;
#X obj 140 64 expr 60000 / $f1;
#X obj 143 118 outlet;
#X connect 0 0 1 0;
#X connect 1 0 2 0;
#X restore 173 64 pd bpmtoms;
#X obj 197 502 * 0.3;
#X obj 197 526 + 0.7;
#X msg 1105 561 50 \, 62 300;
#X msg 1124 743 48 300;
#X msg 900 674 43 \, 50 300;
#X obj 1329 121 + 13;
#X obj 1331 91 * 35;
#X obj 410 843 dac~;
#N canvas -8 -8 1768 909 menu 0;
#X obj 55 46 r menu-music_on-off;
#X obj 55 70 tgl 15 0 empty empty empty 17 7 0 10 -262144 -1 -1 0 1
;
#X obj 55 94 metro 250;
#X obj 55 118 f;
#X obj 55 142 + 1;
#X obj 55 166 % 16;
#N canvas -8 -8 1768 909 euclidean 0;
#X obj 84 10 inlet;
#X obj 84 117 % 16;
#X obj 84 141 t f f;
#X obj 84 165 + 0;
#X obj 84 189 *;
#X obj 84 213 % 16;
#X obj 84 237 <, f 9;
#X obj 84 285 bng 15 250 50 0 empty empty empty 17 7 0 10 -262144 -1
-1;
#X obj 84 305 f;
#X floatatom 85 366 5 0 0 0 - - -;
#X obj 85 389 outlet;
#X floatatom 283 223 5 0 0 1 n_of_hits - -;
#X obj 526 179 inlet;
#X obj 280 35 loadbang;
#X obj 280 83 sel 0;
#X obj 243 11 inlet;
#X text 286 10 how many beats in cycle;
#X floatatom 600 94 5 0 0 1 syncopation_of_cycle - -;
#X obj 599 25 inlet;
#X text 128 8 receive steps;
#X text 569 172 how many hits per cycle;
#X obj 414 88 sel 0;
#X obj 414 64 f \$3;
#X msg 420 127 0;
#X obj 152 357 outlet;
#X obj 128 287 bng 15 250 50 0 empty empty empty 17 7 0 10 -262144
-1 -1;
#X text 25 284 hits ->;
#X text 150 285 <- rests;
#X msg 268 287 1;
#X msg 311 287 0;
#X floatatom 278 326 5 0 0 0 - - -;
#X obj 278 349 outlet;
#X text 336 331 (1 for hit \, 0 for rest), f 11;
#X obj 27 411 cnv 3 550 3 empty empty inlets 8 12 0 13 -228856 -1 0
;
#X obj 27 514 cnv 3 550 3 empty empty outlets 8 12 0 13 -228856 -1
0;
#X obj 27 590 cnv 3 550 3 empty empty arguments 8 12 0 13 -228856 -1
0;
#X obj 27 656 cnv 15 552 21 empty empty empty 20 12 0 14 -233017 -33289
0;
#X obj 125 522 cnv 17 3 17 empty empty 0 5 9 0 16 -228856 -162280 0
;
#X obj 125 420 cnv 17 3 17 empty empty 0 5 9 0 16 -228856 -162280 0
;
#X obj 125 441 cnv 17 3 17 empty empty 1 5 9 0 16 -228856 -162280 0
;
#X obj 125 464 cnv 17 3 17 empty empty 2 5 9 0 16 -228856 -162280 0
;
#X obj 125 545 cnv 17 3 17 empty empty 1 5 9 0 16 -228856 -162280 0
;
#X obj 125 567 cnv 17 3 17 empty empty 2 5 9 0 16 -228856 -162280 0
;
#X text 207 522 bang;
#X text 246 522 - when there's a hit;
#X text 207 545 bang;
#X text 245 544 - when there's a rest;
#X text 200 567 float;
#X text 246 567 - 1 for hit \, 0 for rest;
#X text 154 596 1) float - number of steps (default 8), f 53;
#X text 154 614 2) float - number of hits (default 1), f 53;
#X text 154 631 3) float - rotation value (default 0), f 53;
#X obj 125 487 cnv 17 3 17 empty empty 3 5 9 0 16 -228856 -162280 0
;
#X text 200 440 float;
#X text 245 440 - number of steps;
#X text 246 463 - number of hits;
#X text 246 486 - rotation value;
#X text 200 463 float;
#X text 200 486 float;
#X text 200 419 float;
#X text 245 419 - step number;
#X text 411 695 copied from Else by Alexandre Torres Porres;
#N canvas 0 50 450 300 example 0;
#X obj 115 93 bng 18 250 50 0 empty empty empty 17 7 0 10 -228856 -1
-1;
#X floatatom 219 113 3 0 0 0 - - -;
#X floatatom 260 113 3 0 0 0 - - -;
#X floatatom 301 113 3 0 0 0 - - -;
#X text 20 114 step number:;
#X text 209 92 steps;
#X text 255 92 hits;
#X text 296 92 rotation;
#X floatatom 221 178 5 0 0 0 - - -;
#N canvas 0 50 450 300 clave 0;
#X obj 61 12 inlet;
#X obj 61 36 t b f;
#X msg 131 130 0.6 5 \, 0 200 10;
#X obj 131 154 vline~;
#X obj 131 178 pow~ 4;
#X obj 57 80 sel 0;
#X msg 57 104 1300;
#X floatatom 57 128 5 0 0 0 - - -;
#X obj 57 151 osc~;
#X obj 57 175 *~;
#X obj 57 199 outlet~;
#X msg 99 105 900;
#X connect 0 0 1 0;
#X connect 1 0 2 0;
#X connect 1 1 5 0;
#X connect 2 0 3 0;
#X connect 3 0 4 0;
#X connect 4 0 9 1;
#X connect 5 0 6 0;
#X connect 5 1 11 0;
#X connect 6 0 7 0;
#X connect 7 0 8 0;
#X connect 8 0 9 0;
#X connect 9 0 10 0;
#X connect 11 0 7 0;
#X restore 112 210 pd clave;
#X obj 112 234 *~ 0;
#X obj 112 258 dac~;
#X obj 207 206 vsl 15 50 0 1 0 0 empty empty empty 0 -9 0 10 -262144
-1 -1 0 1;
#X floatatom 207 264 5 0 0 0 - - -;
#X obj 115 33 tgl 15 0 empty empty empty 17 7 0 10 -262144 -1 -1 0
1;
#X obj 115 57 metro 250;
#N canvas -8 -8 1768 909 euclid 0;
#X obj 84 10 inlet;
#X obj 84 117 % 16;
#X obj 84 141 t f f;
#X obj 84 165 + 0;
#X obj 84 189 *;
#X obj 84 213 % 16;
#X obj 84 237 <, f 9;
#X obj 84 261 sel 1;
#X obj 84 285 bng 15 250 50 0 empty empty empty 17 7 0 10 -262144 -1
-1;
#X obj 84 305 f;
#X floatatom 84 329 5 0 0 0 - - -;
#X obj 84 352 outlet;
#X floatatom 264 161 5 0 0 1 n_of_hits - -;
#X obj 469 179 inlet;
#X obj 280 35 loadbang;
#X obj 280 83 sel 0;
#X msg 280 107 4;
#X obj 243 11 inlet;
#X text 286 10 how many beats in cycle;
#X obj 349 86 sel 0;
#X msg 349 110 16;
#X floatatom 600 94 5 0 0 1 syncopation_of_cycle - -;
#X obj 599 25 inlet;
#X text 128 8 receive steps;
#X text 512 172 how many hits per cycle;
#X obj 280 59 f \$1;
#X obj 349 62 f \$2;
#X obj 414 88 sel 0;
#X obj 414 64 f \$3;
#X msg 414 112 0;
#X obj 152 353 outlet;
#X obj 26 44 tgl 15 0 empty empty empty 17 7 0 10 -262144 -1 -1 0 1
;
#X obj 26 68 metro 250;
#X text 25 284 hits ->;
#X msg 268 287 1;
#X msg 311 287 0;
#X floatatom 278 326 5 0 0 0 - - -;
#X obj 278 349 outlet;
#X text 336 331 (1 for hit \, 0 for rest), f 11;
#X text 52 43 <- click for example;
#X obj 145 290 f;
#X floatatom 145 314 5 0 0 0 - - -;
#X obj 195 253 bng 15 250 50 0 empty empty empty 17 7 0 10 -262144
-1 -1;
#X obj 26 92 f;
#X obj 26 116 + 1;
#X connect 0 0 1 0;
#X connect 1 0 2 0;
#X connect 2 0 3 0;
#X connect 2 1 9 1;
#X connect 2 1 40 1;
#X connect 3 0 4 0;
#X connect 4 0 5 0;
#X connect 5 0 6 0;
#X connect 6 0 7 0;
#X connect 7 0 8 0;
#X connect 7 0 34 0;
#X connect 7 1 35 0;
#X connect 7 1 42 0;
#X connect 8 0 9 0;
#X connect 9 0 10 0;
#X connect 10 0 11 0;
#X connect 12 0 4 1;
#X connect 12 0 6 1;
#X connect 12 0 1 1;
#X connect 13 0 12 0;
#X connect 14 0 25 0;
#X connect 14 0 26 0;
#X connect 14 0 28 0;
#X connect 15 0 16 0;
#X connect 16 0 12 0;
#X connect 17 0 5 1;
#X connect 19 0 20 0;
#X connect 20 0 5 1;
#X connect 20 0 1 1;
#X connect 21 0 3 1;
#X connect 22 0 21 0;
#X connect 25 0 12 0;
#X connect 25 0 15 0;
#X connect 26 0 19 0;
#X connect 27 0 29 0;
#X connect 28 0 27 0;
#X connect 29 0 3 1;
#X connect 31 0 32 0;
#X connect 32 0 43 0;
#X connect 34 0 36 0;
#X connect 35 0 36 0;
#X connect 36 0 37 0;
#X connect 40 0 41 0;
#X connect 41 0 30 0;
#X connect 42 0 40 0;
#X connect 43 0 44 0;
#X connect 43 0 1 0;
#X connect 44 0 43 1;
#X restore 112 149 pd euclid 16 7 0;
#X floatatom 168 173 5 0 0 0 - - -;
#X floatatom 112 173 5 0 0 0 - - -;
#X obj 115 116 f;
#X obj 147 115 + 1;
#X connect 0 0 19 0;
#X connect 1 0 16 1;
#X connect 2 0 16 2;
#X connect 3 0 16 3;
#X connect 9 0 10 0;
#X connect 10 0 11 0;
#X connect 10 0 11 1;
#X connect 12 0 13 0;
#X connect 13 0 10 1;
#X connect 14 0 15 0;
#X connect 15 0 0 0;
#X connect 16 0 18 0;
#X connect 16 1 17 0;
#X connect 16 2 8 0;
#X connect 18 0 9 0;
#X connect 19 0 20 0;
#X connect 19 0 16 0;
#X connect 20 0 19 1;
#X restore 722 347 pd example;
#X obj 15 48 tgl 15 0 empty empty empty 17 7 0 10 -262144 -1 -1 0 1
;
#X obj 15 72 metro 250;
#X obj 15 96 f;
#X obj 45 97 + 1;
#X text 37 48 <- click for example;
#X obj 157 310 f;
#X floatatom 157 334 5 0 0 0 - - -;
#X obj 280 59 f \$2;
#X floatatom 227 98 5 0 0 0 - - -;
#X floatatom 419 155 5 0 0 0 - - -;
#X obj 281 153 4;
#X obj 334 92 sel 0;
#X msg 334 116 16;
#X obj 334 68 f \$1;
#X obj 84 261 sel 1;
#X obj 84 335 - 0;
#X connect 0 0 1 0;
#X connect 1 0 2 0;
#X connect 2 0 3 0;
#X connect 2 1 68 1;
#X connect 2 1 8 1;
#X connect 3 0 4 0;
#X connect 4 0 5 0;
#X connect 5 0 6 0;
#X connect 6 0 77 0;
#X connect 7 0 8 0;
#X connect 8 0 78 0;
#X connect 9 0 10 0;
#X connect 11 0 4 1;
#X connect 11 0 6 1;
#X connect 12 0 11 0;
#X connect 13 0 22 0;
#X connect 13 0 70 0;
#X connect 13 0 76 0;
#X connect 14 0 73 0;
#X connect 14 1 11 0;
#X connect 15 0 71 0;
#X connect 17 0 21 0;
#X connect 18 0 17 0;
#X connect 21 0 23 0;
#X connect 21 1 72 0;
#X connect 22 0 21 0;
#X connect 23 0 72 0;
#X connect 25 0 68 0;
#X connect 28 0 30 0;
#X connect 29 0 30 0;
#X connect 30 0 31 0;
#X connect 63 0 64 0;
#X connect 64 0 65 0;
#X connect 65 0 66 0;
#X connect 65 0 1 0;
#X connect 66 0 65 1;
#X connect 68 0 69 0;
#X connect 69 0 24 0;
#X connect 70 0 14 0;
#X connect 71 0 1 1;
#X connect 71 0 5 1;
#X connect 72 0 3 1;
#X connect 73 0 11 0;
#X connect 74 0 75 0;
#X connect 74 1 71 0;
#X connect 75 0 71 0;
#X connect 76 0 74 0;
#X connect 77 0 7 0;
#X connect 77 0 28 0;
#X connect 77 1 25 0;
#X connect 77 1 29 0;
#X connect 78 0 9 0;
#X restore 59 213 pd euclidean;
#X obj 151 92 sel 0;
#X obj 141 163 random 8;
#X obj 141 187 + 4;
#X msg 277 291 0;
#X msg 312 291 1;
#X msg 348 289 2;
#X msg 383 290 3;
#X obj 268 246 sel 0 1 2 3 4 5 6 7;
#X floatatom 59 237 5 0 0 0 - - -;
#X obj 59 260 % 8;
#X floatatom 59 284 5 0 0 0 - - -;
#X obj 263 337 s drums;
#X obj 146 138 sel 0;
#X obj 148 115 random 3;
#X connect 0 0 1 0;
#X connect 1 0 2 0;
#X connect 2 0 3 0;
#X connect 3 0 4 0;
#X connect 4 0 3 1;
#X connect 4 0 5 0;
#X connect 5 0 6 0;
#X connect 5 0 7 0;
#X connect 6 0 15 0;
#X connect 7 0 20 0;
#X connect 8 0 9 0;
#X connect 9 0 6 2;
#X connect 10 0 18 0;
#X connect 11 0 18 0;
#X connect 12 0 18 0;
#X connect 13 0 18 0;
#X connect 14 0 10 0;
#X connect 14 1 11 0;
#X connect 14 2 12 0;
#X connect 14 3 13 0;
#X connect 14 4 10 0;
#X connect 14 4 11 0;
#X connect 14 5 12 0;
#X connect 14 5 13 0;
#X connect 14 6 12 0;
#X connect 14 6 11 0;
#X connect 14 7 12 0;
#X connect 14 7 11 0;
#X connect 14 7 10 0;
#X connect 15 0 16 0;
#X connect 16 0 17 0;
#X connect 17 0 14 0;
#X connect 19 0 8 0;
#X connect 20 0 19 0;
#X restore 640 449 pd menu;
#X obj 959 195 r drums;
#X obj 527 53 r gameplay_music;
#N canvas -8 -8 1768 909 variaveis 0;
#X msg 174 69 \; variaveis \; master_volume_music float <0-1> \; menu-music_on-off
float <0-1> \; gameplay_music float <0 - 1> \; pares_feitos float <0
- x> \; total_de_pares float<x> \; carta-1 <bang> \; carta-2-correto
<bang> \; carta-2-incorreto <bang> \; ganhou float <0-1> \; perdeu
float <0-1> \;;
#X restore 1540 51 pd variaveis;
#X obj 388 754 *~ 0.5;
#X obj 438 754 *~ 0.5;
#X obj 98 832 osc~;
#X obj 98 880 *~;
#X msg 146 828 1 5 \, 0.5 5 5 \, 0 70 120;
#X obj 146 852 vline~;
#X obj 98 805 mtof;
#X obj 98 779 + 60;
#X obj 95 725 r click;
#X obj 61 733 bng 15 250 50 0 empty empty empty 17 7 0 10 -262144 -1
-1;
#X obj 61 753 random 12;
#X obj 98 856 *~ 0.5;
#X connect 0 0 36 0;
#X connect 1 0 21 0;
#X connect 1 1 21 1;
#X connect 2 0 35 0;
#X connect 3 0 2 0;
#X connect 4 0 2 0;
#X connect 5 0 2 0;
#X connect 6 0 2 0;
#X connect 7 0 112 0;
#X connect 8 0 9 0;
#X connect 9 0 18 0;
#X connect 10 0 11 0;
#X connect 11 0 0 0;
#X connect 12 0 7 1;
#X connect 13 0 27 0;
#X connect 14 0 10 1;
#X connect 16 0 17 1;
#X connect 17 0 69 0;
#X connect 18 0 19 0;
#X connect 18 0 20 0;
#X connect 18 0 71 0;
#X connect 19 0 18 1;
#X connect 20 0 12 0;
#X connect 20 0 14 0;
#X connect 20 0 16 0;
#X connect 20 0 22 0;
#X connect 20 0 26 0;
#X connect 20 0 13 0;
#X connect 20 0 61 0;
#X connect 21 0 122 0;
#X connect 22 0 23 0;
#X connect 23 0 15 0;
#X connect 24 0 43 0;
#X connect 24 0 9 1;
#X connect 24 0 99 0;
#X connect 25 0 83 0;
#X connect 26 0 28 0;
#X connect 27 0 7 0;
#X connect 27 0 10 0;
#X connect 28 0 27 1;
#X connect 29 0 30 0;
#X connect 30 0 37 2;
#X connect 31 0 44 0;
#X connect 32 0 33 0;
#X connect 33 0 41 2;
#X connect 34 0 110 1;
#X connect 35 0 32 0;
#X connect 36 0 29 0;
#X connect 37 0 141 0;
#X connect 37 1 142 0;
#X connect 38 0 37 1;
#X connect 39 0 141 0;
#X connect 39 1 142 0;
#X connect 40 0 39 1;
#X connect 41 0 141 0;
#X connect 41 1 142 0;
#X connect 42 0 41 1;
#X connect 43 0 1 2;
#X connect 44 0 39 2;
#X connect 45 0 46 0;
#X connect 46 0 52 0;
#X connect 47 0 48 0;
#X connect 48 0 51 0;
#X connect 49 0 38 0;
#X connect 49 0 111 0;
#X connect 50 0 45 0;
#X connect 51 0 49 0;
#X connect 52 0 53 0;
#X connect 53 0 47 0;
#X connect 54 0 59 0;
#X connect 55 0 56 0;
#X connect 56 0 117 0;
#X connect 57 0 42 0;
#X connect 57 0 115 0;
#X connect 58 0 116 0;
#X connect 59 0 60 0;
#X connect 60 0 55 0;
#X connect 61 0 62 0;
#X connect 61 0 64 0;
#X connect 62 0 63 0;
#X connect 63 0 50 0;
#X connect 64 0 65 0;
#X connect 65 0 58 0;
#X connect 66 0 141 1;
#X connect 66 0 142 1;
#X connect 67 0 68 0;
#X connect 68 0 66 0;
#X connect 69 0 3 0;
#X connect 69 1 4 0;
#X connect 69 2 5 0;
#X connect 69 3 6 0;
#X connect 69 4 3 0;
#X connect 69 4 4 0;
#X connect 69 5 5 0;
#X connect 69 5 6 0;
#X connect 69 6 5 0;
#X connect 69 6 4 0;
#X connect 69 7 5 0;
#X connect 69 7 4 0;
#X connect 69 7 3 0;
#X connect 70 0 17 0;
#X connect 71 0 70 0;
#X connect 72 0 98 0;
#X connect 73 0 43 0;
#X connect 73 1 43 1;
#X connect 74 0 75 0;
#X connect 76 0 82 0;
#X connect 77 0 78 0;
#X connect 79 0 80 0;
#X connect 80 0 86 0;
#X connect 80 0 109 0;
#X connect 80 0 114 0;
#X connect 80 0 135 0;
#X connect 81 0 84 0;
#X connect 82 0 79 0;
#X connect 83 0 79 1;
#X connect 84 0 87 0;
#X connect 86 0 81 0;
#X connect 87 0 85 0;
#X connect 88 0 89 0;
#X connect 88 0 91 0;
#X connect 88 0 96 0;
#X connect 88 0 97 0;
#X connect 89 0 92 0;
#X connect 90 0 92 1;
#X connect 91 0 90 0;
#X connect 92 0 104 0;
#X connect 93 0 141 0;
#X connect 93 0 142 0;
#X connect 94 0 103 0;
#X connect 95 0 94 1;
#X connect 96 0 95 0;
#X connect 97 0 104 1;
#X connect 98 0 73 0;
#X connect 99 0 59 1;
#X connect 99 0 52 1;
#X connect 100 0 133 0;
#X connect 101 0 131 0;
#X connect 102 0 132 0;
#X connect 103 0 93 0;
#X connect 104 0 94 0;
#X connect 107 0 106 0;
#X connect 108 0 107 0;
#X connect 109 0 108 0;
#X connect 110 0 31 0;
#X connect 111 0 40 0;
#X connect 112 0 1 0;
#X connect 113 0 141 0;
#X connect 113 1 142 0;
#X connect 116 0 54 0;
#X connect 117 0 57 0;
#X connect 118 0 88 0;
#X connect 119 0 120 0;
#X connect 120 0 129 0;
#X connect 121 0 36 1;
#X connect 121 0 122 1;
#X connect 121 0 35 1;
#X connect 122 0 110 0;
#X connect 123 0 24 0;
#X connect 124 0 125 0;
#X connect 125 0 126 0;
#X connect 126 0 128 0;
#X connect 127 0 124 0;
#X connect 128 0 123 0;
#X connect 129 0 130 0;
#X connect 130 0 121 0;
#X connect 131 0 118 0;
#X connect 132 0 118 0;
#X connect 133 0 118 0;
#X connect 134 0 105 0;
#X connect 135 0 134 0;
#X connect 138 0 2 0;
#X connect 139 0 8 0;
#X connect 141 0 136 0;
#X connect 142 0 136 1;
#X connect 143 0 152 0;
#X connect 144 0 136 0;
#X connect 144 0 136 1;
#X connect 145 0 146 0;
#X connect 146 0 144 1;
#X connect 147 0 143 0;
#X connect 147 0 145 0;
#X connect 148 0 147 0;
#X connect 149 0 150 0;
#X connect 150 0 151 0;
#X connect 151 0 148 0;
#X connect 152 0 144 0;
